<?xml version="1.0" encoding="UTF-8"?>
<!DOCTYPE svg PUBLIC "-//W3C//DTD SVG 1.1//EN" "http://www.w3.org/Graphics/SVG/1.1/DTD/svg11.dtd">
<!-- Creator: CorelDRAW -->
<svg xmlns="http://www.w3.org/2000/svg" xml:space="preserve" width="180.6mm" height="180.6mm" version="1.1" shape-rendering="geometricPrecision" text-rendering="geometricPrecision" image-rendering="optimizeQuality" fill-rule="evenodd" clip-rule="evenodd"
viewBox="0 0 14436.49 14436.49"
 xmlns:xlink="http://www.w3.org/1999/xlink"
 xmlns:xodm="http://www.corel.com/coreldraw/odm/2003">
 <g id="Layer_x0020_1">
  <metadata id="CorelCorpID_0Corel-Layer"/>
  <g id="_2050701308848">
   <path fill="#F8DCB3" d="M3355.36 2199.31c305.9,0 350.47,116.2 705.11,366.35 790.75,557.79 588.76,327.19 1349.92,53.3 680.17,-244.75 600.27,-309.51 760.02,-1298.31 99.27,-614.51 515.48,-474.76 1470.78,-474.76 730.95,0 495.79,507.52 721.96,1308.18 105.84,374.69 471.99,343.22 941.52,581.07 354.51,179.59 483.78,205.07 789.76,0.06 102.16,-68.44 190.56,-131.74 298.04,-209.49 787.54,-569.61 639.08,-493.58 1640.34,498.28 299.48,296.67 303.72,437.48 74.92,765.85 -70.37,100.99 -128.24,181.14 -200.98,278.36 -567.47,758.6 -340.11,602.37 -74.76,1355.91 246.59,700.24 247.44,604.49 1263.32,766.81 636.25,101.66 495.28,452.48 495.28,1478.46 0,712.98 -494.28,511.47 -1313.95,716.19 -377.36,94.25 -353.36,479.83 -584.29,938.31 -267.9,531.88 -107.93,561.33 223.49,1063.51 465.61,705.5 529.39,612.57 -179.15,1321.11 -712.47,712.46 -608.23,767.36 -1609.83,16.74 -309.5,-231.94 -468.37,-203.81 -803.46,-33.34 -837.7,426.18 -854.98,65.96 -1013.51,1016.62 -21.06,126.34 -49.54,302.88 -71.64,435.89 -96.93,583.39 -597.7,446.2 -1471.15,446.2 -733.68,0 -518.7,-574.72 -716.03,-1314.1 -99.8,-373.92 -500.07,-361.19 -937.99,-584.62 -485.1,-247.5 -551.71,-111.91 -1092.97,279.58 -733.57,530.57 -642.57,401.97 -1616.63,-558.77 -386.58,-381.3 -165.1,-603.14 162.38,-1036.46 68.51,-90.65 133.21,-181.06 201.66,-277.68 286.51,-404.51 56.21,-532.65 -157.27,-1091.92 -232.97,-610.31 -236.78,-561.18 -858.11,-664.5 -1024.71,-170.38 -906.25,-74.57 -906.25,-1546.83 0,-726.49 532.4,-507.9 1314.11,-716.03 354.96,-94.5 341.38,-474.22 575.45,-947.13 180.07,-363.81 193.96,-448.07 -22.58,-767.74 -669.85,-988.89 -828.22,-821.26 15.12,-1664.6 128.61,-128.61 424.55,-500.48 627.37,-500.48zm112.78 -874.08c-699.76,0 -990.68,412.66 -1346.37,768.35 -416.01,416.01 -824.74,674.1 -824.74,1402.76 0,452.81 319.82,824.51 565.28,1156.08 116.54,157.42 62.41,156.46 -60.58,476.47 -45.44,118.23 -41.35,148.75 -192.02,174.53 -561.44,96.05 -1091.72,120.08 -1429.32,685.4 -68.43,114.58 -180.38,361.24 -180.38,524.53l0 1466.2c0,210.51 168.31,536.8 274.85,655.62 402.53,448.95 690.36,460.23 1309.18,551.77 225.24,33.32 176.85,24.89 250.03,201.11 37.91,91.28 117.55,244.69 139.68,339.67l-293.92 410.99c-44.13,60.91 -65.76,82.28 -106.66,147.11 -598.95,949.43 -24.55,1483.95 520.41,2028.91 263.27,263.28 509.56,572.52 858.38,720.6 814.37,345.72 1296.39,-198.29 1813.21,-544.38 93.99,21.89 213.98,86.85 323.18,127.95 169.29,63.72 163.51,58.94 193.26,257.88 99.07,662.44 157.38,1141.28 826.62,1457.27 80.29,37.91 274.78,102.44 376.9,102.44l1466.21 0c409.73,0 876.17,-388.63 1043.38,-789.38 236.01,-565.62 20.1,-897.05 332.98,-1020.44 442.58,-174.54 249.58,-237.81 887.06,223.12 373.73,270.23 914.03,364.92 1322.2,153.39 359,-186.05 511.02,-393.53 805.94,-688.45 468.95,-468.94 768.35,-658.08 768.35,-1374.57 0,-612.2 -620.31,-1090.4 -620.31,-1268.83 0,-43.72 103.25,-260.45 128.11,-323.02 68.33,-172.06 51.56,-162.59 257.72,-193.42 212.06,-31.72 590.4,-85.08 770.32,-160.14 397.82,-166 789.38,-632.9 789.38,-1043.38l0 -1438.01c0,-369.32 -270.45,-754.46 -501.38,-908.44 -165.96,-110.65 -264.3,-165.09 -481.4,-223.5 -838.41,-225.57 -668.55,105.31 -916.41,-495.13 -82.28,-199.32 -15.66,-190.27 162.34,-448.13 209.41,-303.36 439.82,-587.21 439.82,-998.19 0,-290.15 -129.51,-587.5 -257.14,-757.93 -133.83,-178.7 -333.85,-354.68 -497.12,-517.95 -218.87,-218.87 -529.27,-579.79 -805.31,-717.28 -248.7,-123.87 -383.67,-121.56 -639.75,-121.56 -520.75,0 -835.18,377.28 -1149.41,572.67 -105.88,65.84 -155.8,39.84 -259.95,-8.38 -378.72,-175.32 -361.38,-76.83 -396.76,-308.97 -94.48,-620.02 -156.85,-1079.69 -686.6,-1399.92 -113.75,-68.76 -361.4,-180.63 -524.28,-180.63l-1409.81 0c-404.33,0 -729.92,260.27 -922.64,487.18 -309.34,364.21 -300.63,1038.67 -362.06,1216.92 -45.24,131.3 -94.04,89.78 -338.99,197.56 -230.04,101.22 -122.69,96.81 -440.22,-119.71 -259.11,-176.69 -593.12,-456.72 -981.28,-456.72z"/>
   <path fill="#F8DCB3" d="M5272.7 7331.03c0,-821.78 345.28,-1504.76 1089.36,-1871.25 508.87,-250.63 1179.12,-250.03 1693.37,-9.19 366.85,171.8 742.51,548.51 921.28,911.48 642.23,1303.92 -392.3,2801.72 -1645.68,2801.72 -821.78,0 -1504.76,-345.28 -1871.25,-1089.36 -81.24,-164.95 -187.08,-511.63 -187.08,-743.4zm-874.09 -112.78c0,1543.38 1276.25,2819.63 2819.63,2819.63 1543.38,0 2819.63,-1276.25 2819.63,-2819.63 0,-1543.38 -1276.25,-2819.63 -2819.63,-2819.63 -1543.38,0 -2819.63,1276.25 -2819.63,2819.63z"/>
  </g>
 </g>
</svg>
