<svg width="157" height="207" viewBox="0 0 157 207" fill="none" xmlns="http://www.w3.org/2000/svg">
<path fill-rule="evenodd" clip-rule="evenodd" d="M102.707 187.486C102.175 187.486 102.175 188.019 101.643 188.019V191.215C101.11 194.411 103.771 195.476 107.496 196.008C110.689 196.541 113.35 196.008 113.882 192.813L116.011 178.432C112.286 181.627 107.496 184.823 102.707 188.019V187.486Z" fill="#F8DCB3"/>
<path fill-rule="evenodd" clip-rule="evenodd" d="M111.754 42.0777C111.754 43.6756 112.818 44.7409 114.414 45.2735L113.882 49.5346H114.414C119.204 51.1324 123.993 52.7303 129.315 53.7956C130.379 54.3282 131.444 54.3282 132.508 54.8609L133.572 47.404C135.169 47.404 136.233 46.3388 136.765 44.7409C136.765 43.143 135.701 42.0777 134.637 41.5451L115.479 39.4146C113.882 39.4146 112.818 40.4798 112.818 42.0777H111.754Z" fill="#F8DCB3"/>
<path fill-rule="evenodd" clip-rule="evenodd" d="M46.8301 39.4146L27.6723 41.5451C26.0759 41.5451 25.0115 43.143 25.5437 44.7409C25.5437 46.3388 27.1402 47.404 28.7367 47.404L29.801 54.8609C30.8653 54.3282 31.9296 54.3282 32.9939 53.7956C38.3155 52.1977 43.105 51.1324 47.8944 49.5346L47.3623 45.2735C48.9587 45.2735 50.0231 43.6756 50.0231 42.0777C50.0231 40.4798 48.4266 39.4146 47.3623 39.4146H46.8301Z" fill="#F8DCB3"/>
<path fill-rule="evenodd" clip-rule="evenodd" d="M47.8943 192.28C48.4264 195.476 51.0872 196.008 54.2802 195.476C57.4731 194.943 60.1339 194.41 60.1339 190.682V187.486C59.6018 187.486 59.6018 186.954 59.0696 186.954C54.2802 183.758 50.0229 180.562 45.7656 177.366L47.8943 191.747V192.28Z" fill="#F8DCB3"/>
<path fill-rule="evenodd" clip-rule="evenodd" d="M73.9702 201.867C73.9702 205.596 77.1632 206.661 80.8883 206.661C84.6134 206.661 87.8064 205.596 87.8064 201.867V194.943H87.2742C86.2099 195.476 85.6777 195.476 84.6134 196.009L83.5491 196.541H83.0169H82.4848L81.4205 197.074H80.8883H80.3561L79.2918 196.541H78.7597H78.2275L77.1632 196.009C76.631 195.476 75.5667 195.476 74.5024 194.943C73.9702 194.943 73.9702 194.943 73.9702 194.411V201.335V201.867Z" fill="#F8DCB3"/>
<path fill-rule="evenodd" clip-rule="evenodd" d="M69.713 29.8271C68.1165 29.8271 66.52 31.425 66.52 33.0229C66.52 34.6208 68.1165 36.2187 69.713 36.2187V40.4798C70.2451 40.4798 70.7773 39.9471 71.3095 39.9471C73.9703 38.3493 76.0989 37.284 78.2275 36.2187L79.824 35.1535L80.3562 34.6208L80.8883 35.1535L81.9527 36.2187C84.0813 37.284 86.2099 38.8819 88.8708 39.9471C89.4029 39.9471 89.9351 40.4798 90.4672 40.4798V36.2187C92.0637 36.2187 93.6602 34.6208 93.6602 33.0229C93.6602 31.425 92.0637 29.8271 90.4672 29.8271H68.6487H69.713Z" fill="#F8DCB3"/>
<path fill-rule="evenodd" clip-rule="evenodd" d="M50.023 67.1118L51.0874 69.775L53.7482 69.2423L52.1517 70.8402L53.216 73.5034L51.0874 71.9055L48.9587 73.5034L49.4909 70.8402L46.8301 69.775H49.4909L50.023 67.1118Z" fill="#F8DCB3"/>
<path fill-rule="evenodd" clip-rule="evenodd" d="M56.9411 98.0044L58.0054 100.135H60.6662L59.0697 101.733L60.134 103.863L58.0054 102.798L56.4089 104.396V101.733L54.2803 100.668L56.4089 100.135L56.9411 98.0044Z" fill="#F8DCB3"/>
<path fill-rule="evenodd" clip-rule="evenodd" d="M56.4088 80.96L58.0053 83.6231H60.6661L58.5375 85.221L60.134 87.3515L57.4732 85.7536L55.8767 87.3515L56.4088 85.221L53.748 83.6231H56.4088V80.96Z" fill="#F8DCB3"/>
<path fill-rule="evenodd" clip-rule="evenodd" d="M37.7834 78.8296L39.3798 81.4927L42.0406 80.9601L39.912 82.558L41.5085 85.2212L38.8477 83.6233L37.2512 85.2212L37.7834 83.0906L35.1226 81.4927H37.7834V78.8296Z" fill="#F8DCB3"/>
<path fill-rule="evenodd" clip-rule="evenodd" d="M66.5199 76.1665L67.5843 78.8297H70.2451L68.6486 80.4276L69.7129 82.5581L67.5843 80.9602L65.9878 82.5581V80.4276L63.8591 78.8297H65.9878L66.5199 76.1665Z" fill="#F8DCB3"/>
<path d="M130.379 129.43V131.028C127.186 131.028 123.993 131.56 121.332 131.56C116.011 132.093 110.157 132.625 105.368 133.691C68.6486 139.55 42.5728 152.333 37.7833 154.996C35.6547 150.735 33.5261 145.941 32.9939 141.148C55.3446 134.223 80.8883 131.56 100.578 130.495C103.239 130.495 105.9 129.962 108.561 129.962C110.157 129.962 111.754 129.962 112.818 129.962C115.479 129.962 118.14 129.962 120.268 129.962C125.058 129.962 128.783 129.962 130.911 129.962L130.379 129.43Z" fill="#F8DCB3"/>
<path d="M129.847 134.223V136.354C129.847 136.886 129.847 137.951 129.847 138.484C129.315 138.484 128.783 139.017 128.251 139.017C121.865 140.615 116.011 142.745 110.689 144.876C84.0813 156.061 65.9878 173.105 60.6662 178.431C60.1341 178.431 60.1341 177.899 59.6019 177.899C58.5376 177.366 58.0054 176.834 56.9411 176.301L56.409 175.768C55.8768 175.236 55.8768 175.236 55.3446 174.703C55.3446 174.703 54.8125 174.703 54.8125 174.17C54.8125 174.17 54.2803 174.17 54.2803 173.638L53.7482 173.105C53.216 173.105 53.216 172.573 52.6838 172.573C51.6195 172.04 51.0874 170.975 50.5552 170.442C50.023 170.442 50.023 169.909 49.4909 169.909C48.9587 169.377 48.4266 168.844 47.8944 168.311C47.3622 167.779 47.3622 167.779 46.8301 167.246C72.9059 142.213 117.607 135.288 130.379 133.69L129.847 134.223Z" fill="#F8DCB3"/>
<path d="M128.251 144.876C127.186 148.604 125.59 152.333 123.461 156.061C123.461 156.594 122.929 156.594 122.929 157.127L122.397 157.659C122.397 158.192 121.865 158.192 121.865 158.724L121.333 159.257C121.333 159.79 120.8 159.79 120.8 160.322C120.8 160.855 120.268 160.855 120.268 161.388L119.736 161.92C119.736 161.92 119.736 161.92 119.736 162.453L119.204 162.985C118.14 164.583 117.075 165.649 115.479 167.247C115.479 167.247 115.479 167.779 114.947 167.779C114.414 168.312 113.882 168.844 112.818 169.91C112.286 170.442 112.286 170.442 111.754 170.975C111.222 170.975 111.222 171.508 110.689 171.508C110.157 171.508 110.157 172.04 109.625 172.04C109.093 172.04 109.093 172.573 108.561 172.573C108.029 173.105 107.496 173.638 106.964 174.171C106.964 174.171 106.964 174.171 106.432 174.703L105.9 175.236C105.368 175.769 104.303 176.301 103.771 176.834C103.239 176.834 103.239 177.366 102.707 177.366C102.707 177.366 102.175 177.899 101.643 177.899C100.578 178.432 100.046 178.964 98.9818 179.497L98.4497 180.03C97.3853 180.562 96.8532 181.095 95.7889 181.628C93.1281 183.225 90.4673 184.823 87.2743 185.889C86.7421 185.889 86.7421 186.421 86.21 186.421H85.6778H85.1457C84.6135 186.421 84.6135 186.954 84.0813 186.954C83.017 187.486 81.9527 188.019 80.8884 188.552C80.8884 188.552 80.3562 188.552 80.3562 189.084C79.8241 189.084 79.8241 189.084 79.2919 189.617C78.7597 189.617 78.2276 189.084 77.1633 189.084H76.6311C77.1633 188.552 77.1633 188.019 77.6954 187.486C77.6954 187.486 77.6954 186.954 78.2276 186.954C80.3562 184.291 83.5492 180.03 87.8065 175.236C96.8532 165.116 110.689 152.333 126.654 145.941L128.251 144.876Z" fill="#F8DCB3"/>
<path d="M112.286 129.43C113.35 129.43 114.947 128.897 114.947 128.897C113.882 126.766 109.625 118.244 110.157 110.255C106.964 116.114 106.964 123.571 107.496 130.495C104.836 130.495 102.175 130.495 99.5139 131.027V130.495C100.578 129.962 102.175 129.962 102.707 129.43C102.707 126.234 102.707 119.31 103.239 113.983C103.771 109.19 105.368 103.863 105.9 102.798C106.964 98.0043 106.964 95.3411 106.964 95.3411C106.964 95.3411 105.9 95.8737 103.771 96.4064C101.11 95.3411 95.7888 92.6779 95.7888 92.6779C95.7888 92.6779 94.1923 92.6779 93.128 92.6779C91.5315 92.1453 92.0637 89.4822 92.0637 89.4822C92.0637 89.4822 92.5958 88.4169 93.6601 88.9495H94.1923C95.2566 89.4822 96.3209 90.0148 96.3209 90.0148L104.303 92.1453L106.432 90.5474C106.432 90.5474 108.028 88.9495 110.157 86.2864L113.882 84.6885C116.543 88.4169 116.543 90.5474 116.543 92.1453V95.3411C116.543 102.798 116.011 104.396 116.011 104.396C116.011 108.124 115.479 109.722 114.947 113.983C114.947 119.31 117.075 125.168 119.204 129.962C117.075 129.962 114.414 129.962 111.754 129.962V129.43H112.286Z" fill="#F8DCB3"/>
<path d="M113.882 81.4928L109.625 82.5581C108.561 82.5581 108.028 82.5581 108.028 82.5581C107.496 81.4928 107.496 80.4275 107.496 80.4275L106.964 79.8949C108.561 78.297 108.561 76.6991 108.561 76.6991C108.561 76.6991 108.561 75.6339 109.093 75.1012C109.625 74.5686 110.157 73.5033 111.754 72.9707C114.947 72.9707 116.011 74.5686 116.011 76.1665C116.011 77.7644 114.947 80.4275 113.882 81.4928Z" fill="#F8DCB3"/>
<path d="M109.093 74.5686C109.093 74.036 108.561 73.5033 109.625 72.9707C110.689 72.9707 114.947 72.9707 116.011 74.036C116.011 74.036 117.607 75.6339 114.414 80.4275C111.754 84.156 109.093 75.1012 109.093 74.036V74.5686Z" fill="#F8DCB3"/>
<path d="M114.414 84.6884L110.157 85.221C110.689 82.5579 109.625 82.0252 109.625 82.0252L113.882 80.96C113.882 80.96 113.882 83.0905 113.882 84.1558L114.414 84.6884Z" fill="#F8DCB3"/>
<path fill-rule="evenodd" clip-rule="evenodd" d="M88.3387 93.2104C88.8709 93.2104 89.4031 93.7431 89.4031 94.2757C89.4031 94.8083 88.8709 95.341 88.3387 95.341C87.8066 95.341 87.2744 94.8083 87.2744 94.2757C87.2744 93.7431 87.8066 93.2104 88.3387 93.2104Z" fill="#F8DCB3"/>
<path fill-rule="evenodd" clip-rule="evenodd" d="M84.0814 102.265C84.6136 102.265 85.1457 102.798 85.1457 103.33C85.1457 103.863 84.6136 104.396 84.0814 104.396C83.5492 104.396 83.0171 103.863 83.0171 103.33C83.0171 102.798 83.5492 102.265 84.0814 102.265Z" fill="#F8DCB3"/>
<path fill-rule="evenodd" clip-rule="evenodd" d="M77.1632 117.179C77.6954 117.179 78.2275 117.711 78.2275 118.244C78.2275 118.777 77.6954 119.309 77.1632 119.309C76.631 119.309 76.0989 118.777 76.0989 118.244C76.0989 117.711 76.631 117.179 77.1632 117.179Z" fill="#F8DCB3"/>
<path fill-rule="evenodd" clip-rule="evenodd" d="M75.5668 102.798C76.0989 102.798 76.6311 103.33 76.6311 103.863C76.6311 104.396 76.0989 104.928 75.5668 104.928C75.0346 104.928 74.5024 104.396 74.5024 103.863C74.5024 103.33 75.0346 102.798 75.5668 102.798Z" fill="#F8DCB3"/>
<path fill-rule="evenodd" clip-rule="evenodd" d="M66.5199 117.179C67.052 117.179 67.5842 117.711 67.5842 118.244C67.5842 118.777 67.052 119.309 66.5199 119.309C65.9877 119.309 65.4556 118.777 65.4556 118.244C65.4556 117.711 65.9877 117.179 66.5199 117.179Z" fill="#F8DCB3"/>
<path fill-rule="evenodd" clip-rule="evenodd" d="M71.3094 131.027C71.8416 131.027 72.3738 131.56 72.3738 132.093C72.3738 132.625 71.8416 133.158 71.3094 133.158C70.7773 133.158 70.2451 132.625 70.2451 132.093C70.2451 131.56 70.7773 131.027 71.3094 131.027Z" fill="#F8DCB3"/>
<path fill-rule="evenodd" clip-rule="evenodd" d="M91.5316 126.766C92.0638 126.766 92.5959 127.299 92.5959 127.831C92.5959 128.364 92.0638 128.897 91.5316 128.897C90.9994 128.897 90.4673 128.364 90.4673 127.831C90.4673 127.299 90.9994 126.766 91.5316 126.766Z" fill="#F8DCB3"/>
<path fill-rule="evenodd" clip-rule="evenodd" d="M77.6954 126.766C78.2276 126.766 78.7597 127.299 78.7597 127.831C78.7597 128.364 78.2276 128.897 77.6954 128.897C77.1633 128.897 76.6311 128.364 76.6311 127.831C76.6311 127.299 77.1633 126.766 77.6954 126.766Z" fill="#F8DCB3"/>
<path fill-rule="evenodd" clip-rule="evenodd" d="M63.8592 127.299C64.3914 127.299 64.9236 127.831 64.9236 128.364C64.9236 128.897 64.3914 129.429 63.8592 129.429C63.3271 129.429 62.7949 128.897 62.7949 128.364C62.7949 127.831 63.3271 127.299 63.8592 127.299Z" fill="#F8DCB3"/>
<path fill-rule="evenodd" clip-rule="evenodd" d="M93.6601 99.6021C94.1922 99.6021 94.1923 100.135 94.1923 100.135C94.1923 100.667 93.6601 100.667 93.6601 100.667C93.1279 100.667 93.1279 100.135 93.1279 100.135C93.1279 99.6021 93.6601 99.6021 93.6601 99.6021Z" fill="#F8DCB3"/>
<path fill-rule="evenodd" clip-rule="evenodd" d="M84.0812 124.103C84.6134 124.103 84.6134 124.636 84.6134 124.636C84.6134 125.168 84.0812 125.168 84.0812 125.168C83.5491 125.168 83.5491 124.636 83.5491 124.636C83.5491 124.103 84.0812 124.103 84.0812 124.103Z" fill="#F8DCB3"/>
<path fill-rule="evenodd" clip-rule="evenodd" d="M82.4848 111.853C83.017 111.853 83.017 112.385 83.017 112.385C83.017 112.918 82.4848 112.918 82.4848 112.918C81.9526 112.918 81.9526 112.385 81.9526 112.385C81.9526 111.853 82.4848 111.853 82.4848 111.853Z" fill="#F8DCB3"/>
<path fill-rule="evenodd" clip-rule="evenodd" d="M69.1808 123.57C69.713 123.57 69.713 124.103 69.713 124.103C69.713 124.636 69.1808 124.636 69.1808 124.636C68.6487 124.636 68.6487 124.103 68.6487 124.103C68.6487 123.57 69.1808 123.57 69.1808 123.57Z" fill="#F8DCB3"/>
<path fill-rule="evenodd" clip-rule="evenodd" d="M70.7773 109.189C71.3094 109.189 71.3094 109.722 71.3094 109.722C71.3094 110.255 70.7773 110.255 70.7773 110.255C70.2451 110.255 70.2451 109.722 70.2451 109.722C70.2451 109.189 70.7773 109.189 70.7773 109.189Z" fill="#F8DCB3"/>
<path fill-rule="evenodd" clip-rule="evenodd" d="M81.9526 95.3408C82.4847 95.3408 82.4847 95.8735 82.4847 95.8735C82.4847 96.4061 81.9526 96.4061 81.9526 96.4061C81.4204 96.4061 81.4204 95.8735 81.4204 95.8735C81.4204 95.3408 81.9526 95.3408 81.9526 95.3408Z" fill="#F8DCB3"/>
<path fill-rule="evenodd" clip-rule="evenodd" d="M90.4672 108.657C90.9994 108.657 90.9994 109.189 90.9994 109.189C90.9994 109.722 90.4672 109.722 90.4672 109.722C89.9351 109.722 89.9351 109.189 89.9351 109.189C89.9351 108.657 90.4672 108.657 90.4672 108.657Z" fill="#F8DCB3"/>
<path fill-rule="evenodd" clip-rule="evenodd" d="M90.4672 118.777C90.9994 118.777 90.9994 119.309 90.9994 119.309C90.9994 119.842 90.4672 119.842 90.4672 119.842C89.9351 119.842 89.9351 119.309 89.9351 119.309C89.9351 118.777 90.4672 118.777 90.4672 118.777Z" fill="#F8DCB3"/>
<path d="M142.619 62.318C142.087 63.3833 142.087 63.9159 142.087 64.9812C141.554 66.5791 141.022 68.177 141.022 69.7749C140.49 72.9707 139.958 76.1664 139.426 79.8949C138.362 86.2864 137.829 93.2107 136.765 99.6022C136.233 105.994 135.701 112.918 134.636 119.31L133.572 129.43L133.04 134.223V136.886C133.04 137.952 133.04 138.484 133.04 139.55C132.508 143.278 131.443 147.006 130.379 150.735V151.267V151.8C129.847 153.398 129.315 154.996 128.25 156.061C128.25 156.594 127.718 157.126 127.718 157.659C127.718 157.659 127.718 158.192 127.186 158.192C126.654 158.724 126.654 159.257 126.122 159.79C125.59 160.322 125.59 160.855 125.058 161.387C124.525 162.453 123.993 162.985 123.461 164.051C122.929 164.583 122.929 165.116 122.397 165.649C121.332 167.246 120.268 168.312 118.672 169.91L118.139 170.442L117.607 170.975C117.075 171.507 117.075 171.507 116.543 172.04C116.011 172.573 114.946 173.638 114.414 174.171C110.689 177.899 106.432 180.562 102.175 183.758C101.11 184.291 99.5138 185.356 98.4495 185.889C95.7887 187.486 92.5958 189.084 89.935 190.682C89.4028 191.215 88.8706 191.215 87.8063 191.747C85.6777 192.813 83.0169 193.878 80.8882 194.411C78.2274 193.345 76.0988 192.813 73.438 191.747C72.9058 191.215 72.3737 191.215 71.8415 190.682C68.6486 189.084 65.9878 187.486 63.327 185.889C62.2626 185.356 60.6662 184.291 59.6018 183.758C55.3446 181.095 51.0873 177.899 47.3622 174.703C46.2978 174.171 45.7657 173.105 45.2335 172.573C45.2335 172.04 44.7014 172.04 44.7014 171.507L44.1692 170.975L43.637 170.442C41.5084 168.312 39.9119 165.649 37.7833 163.518C36.719 161.92 36.1868 160.855 35.1225 159.257C34.5903 158.724 34.5903 158.192 34.0582 157.659C33.526 156.061 32.4617 154.463 31.9295 152.865V152.333V151.8C30.8652 148.072 29.8009 144.343 29.2687 140.615C29.2687 139.55 29.2687 139.017 29.2687 137.952V135.289L28.7366 130.495L27.6722 120.375C27.1401 113.983 26.6079 107.059 25.5436 100.667C25.0114 94.2759 23.9471 87.3517 22.8828 80.9601C22.3506 77.7643 21.8185 74.5686 21.2863 70.8401C20.7542 69.2422 20.7542 67.6443 20.222 66.0464C20.222 64.9812 19.6898 64.4485 19.6898 63.3833V62.8507C23.415 62.318 27.1401 61.2528 30.333 60.7201C31.3974 60.1875 32.9938 60.1875 34.0582 59.6549C38.8476 58.5896 43.637 56.9917 48.4265 55.9264C48.9586 55.9264 50.023 55.3938 50.5551 55.3938C55.8767 53.7959 61.7305 52.198 67.0521 50.0675C68.1164 49.5349 69.7129 49.0022 70.7772 48.4696C72.3737 47.937 73.438 47.4043 75.0345 46.8717C77.1631 45.8064 79.2918 44.7412 81.4204 43.6759C83.549 44.7412 85.6777 45.8064 87.8063 46.8717C89.4028 47.4043 90.4671 47.937 92.0636 48.4696C93.1279 49.0022 94.7244 49.5349 95.7887 50.0675C101.11 52.198 106.432 53.7959 112.286 55.3938C112.818 55.3938 113.882 55.9264 114.414 55.9264C119.204 57.5243 123.993 58.5896 128.783 59.6549C129.847 60.1875 131.443 60.1875 132.508 60.7201C136.233 61.7854 139.958 62.318 143.683 63.3833V63.9159L142.619 62.318ZM145.28 59.1222C141.022 58.057 136.765 56.9917 131.976 55.9264C130.911 55.3938 129.847 55.3938 128.783 54.8612C123.993 53.2633 118.672 52.198 113.882 50.6001C113.35 50.6001 112.818 50.6001 112.818 50.0675C107.496 48.4696 102.175 46.3391 96.853 44.2085C94.7244 43.6759 93.1279 42.6107 91.5314 41.5454C90.9993 41.0128 89.935 41.0128 89.4028 40.4801C86.742 39.4149 84.6134 37.817 82.4847 36.2191L81.4204 35.1538L79.8239 36.2191C77.6953 37.817 75.0345 38.8822 72.9058 40.4801C72.3737 41.0128 71.3094 41.0128 70.7772 41.5454C69.1807 42.6107 67.0521 43.1433 65.4556 43.6759C60.134 45.8064 54.8124 47.937 49.4908 49.5349C48.9586 49.5349 48.4265 50.0675 48.4265 50.0675C43.637 51.6654 38.3154 53.2633 33.526 54.3285C32.4617 54.8612 31.3974 54.8612 29.8009 55.3938C25.5436 56.4591 21.2863 57.5243 17.029 58.5896L14.9004 59.1222L15.9647 60.7201C16.4969 61.2528 16.4969 62.318 17.029 62.8507C17.029 63.3833 17.5612 64.4485 17.5612 64.9812C18.0934 66.5791 18.0934 68.177 18.6255 69.7749C19.1577 72.9707 19.6898 76.1664 20.222 79.3622C21.2863 85.7538 21.8185 92.678 22.3506 99.0696C22.8828 105.461 23.415 112.385 23.9471 118.777L25.0114 128.897L25.5436 133.691V136.354C25.5436 137.419 25.5436 137.952 25.5436 139.017C26.0758 142.213 26.6079 145.941 27.6722 149.137C27.6722 149.67 27.6722 149.67 28.2044 150.202V150.735V151.267C28.7366 152.865 29.2687 154.463 30.333 156.061C30.333 156.594 30.8652 157.126 30.8652 157.659C30.8652 158.192 31.3974 158.724 31.3974 159.257C32.4617 160.855 33.526 162.453 34.5903 164.051C35.1225 164.583 35.1225 165.116 35.6546 165.649C36.719 167.246 37.7833 168.312 38.8476 169.377L39.3798 169.91L39.9119 170.442C41.5084 172.04 43.1049 173.638 44.7014 175.236L45.2335 175.769C49.4908 179.497 54.2802 183.225 59.0697 186.421C59.6018 186.954 60.134 186.954 60.6662 187.486C63.8591 189.084 66.5199 190.682 69.7129 192.28C70.7772 192.813 71.8415 193.345 72.9058 193.878C73.438 193.878 73.9702 194.411 73.9702 194.411C74.5023 194.943 75.5666 194.943 76.0988 195.476L77.1631 196.009H77.6953H78.2274L79.2918 196.541L80.3561 196.009H80.8882H81.4204L82.4847 195.476C83.549 194.943 84.0812 194.943 84.6134 194.411C85.1455 194.411 85.6777 193.878 85.6777 193.878C86.742 193.345 87.8063 192.813 89.4028 192.28C92.5958 190.682 95.2566 189.084 98.4495 187.486C98.9817 186.954 99.5138 186.954 100.046 186.421C104.835 183.225 109.625 180.03 113.882 175.769C114.414 175.769 114.414 175.236 114.946 175.236C116.543 173.638 118.139 172.04 119.736 170.442L120.268 169.91L120.8 169.377C121.865 168.312 122.929 166.714 123.993 165.116C124.525 164.583 124.525 164.051 125.058 164.051C126.122 162.453 127.186 160.855 127.718 159.79C128.25 159.257 128.783 158.192 128.783 157.659C129.847 156.061 130.379 154.463 130.911 152.865V152.333V151.8C130.911 151.267 130.911 151.267 131.443 150.735C132.508 147.539 133.572 143.811 133.572 140.615C133.572 140.082 133.572 139.55 133.572 139.55C133.572 139.017 133.572 138.484 133.572 138.484V135.821L134.104 131.027L135.169 120.907C135.701 114.516 136.233 107.592 136.765 101.2C137.297 94.8085 138.362 87.8843 138.894 81.4928C139.426 78.297 139.958 75.1012 140.49 71.9054C141.022 70.3075 141.022 68.7096 141.554 67.1117C142.087 65.5138 142.619 63.9159 143.151 62.8507L144.215 61.2528L142.087 60.7201L145.28 59.1222Z" fill="#F8DCB3"/>
<path d="M156.987 178.964L149.537 196.541C148.473 194.41 140.49 190.682 131.444 188.019C128.251 186.954 127.718 185.356 128.251 183.758C129.315 180.562 135.169 176.834 137.297 175.768L137.829 175.236C137.829 175.236 137.829 175.236 137.829 174.703C137.829 173.638 136.233 173.105 136.233 173.105C136.233 173.105 135.701 173.105 135.169 173.105H134.637H134.104H133.572C133.04 173.105 132.508 172.572 131.976 172.572C128.251 171.507 124.525 170.975 120.268 169.909C119.204 169.909 117.607 169.377 116.543 169.377C116.011 169.377 115.479 169.377 114.947 168.844C114.414 168.844 113.35 168.844 112.286 168.311C106.964 167.779 101.11 166.714 94.7245 166.714C89.4029 166.181 84.0813 166.181 78.2275 166.181C76.0989 166.181 74.5024 166.181 72.3738 166.181C62.7949 166.181 53.216 167.246 44.7015 168.311C43.6371 168.311 43.105 168.311 42.0406 168.844C41.5085 168.844 40.9763 168.844 40.4442 169.377C38.8477 169.377 37.7834 169.909 36.7191 169.909C32.4618 170.442 28.7366 171.507 25.0115 172.572C24.4794 172.572 23.9472 173.105 23.415 173.105H22.8829H22.3507H21.8186C21.2864 173.105 21.2864 173.105 20.7542 173.105C20.7542 173.105 19.1578 173.638 19.1578 174.703C19.1578 174.703 19.1578 174.703 19.1578 175.236L19.6899 175.768C21.8186 176.834 27.6723 180.562 28.7366 183.758C29.2688 185.356 28.7366 186.954 25.5437 188.019C16.497 190.682 8.51456 193.878 7.45024 196.541L0 178.964C1.06432 176.834 7.9824 173.638 16.497 170.975L10.6432 157.126C10.111 156.061 11.7075 154.996 11.7075 154.996C15.4326 153.93 19.6899 152.865 23.9472 151.8C25.0115 151.8 26.0758 151.267 27.1402 151.267C27.6723 151.267 28.2045 151.267 28.7366 150.735C29.2688 150.735 30.3331 150.202 30.8653 150.202C36.1869 149.137 42.0406 148.604 47.8944 147.539C56.9411 146.474 66.52 145.941 76.6311 145.941C84.6135 145.941 92.5959 146.474 100.578 147.006C105.368 147.539 110.689 148.071 114.947 148.604C117.607 149.137 119.736 149.137 122.397 149.669C122.929 149.669 123.461 149.669 124.525 150.202C125.058 150.202 125.59 150.202 126.122 150.735C127.186 150.735 128.251 151.267 129.315 151.267C133.572 152.332 137.829 153.398 141.555 154.463C141.555 154.463 143.151 155.528 142.619 156.594L136.765 170.442C144.748 173.105 152.198 176.301 153.262 178.431L156.987 178.964Z" fill="#F8DCB3"/>
<path d="M31.9296 161.92L28.2045 162.453L28.7367 165.116L32.9939 164.051L33.5261 165.649L27.6723 166.714L25.5437 157.127L30.8653 156.061L31.3975 157.659L27.6723 158.724L28.2045 161.388L31.9296 160.855L32.4618 162.453L31.9296 161.92ZM128.783 164.051C129.315 164.583 129.847 165.116 130.911 165.116C131.976 165.116 132.508 165.116 133.04 164.051C133.04 163.518 133.04 162.985 131.444 161.92C129.847 160.855 129.315 159.79 129.315 158.724C129.847 157.127 131.444 156.061 133.04 156.594C134.104 156.594 134.637 157.127 135.169 157.659L134.637 158.724C134.104 158.724 133.572 158.192 133.04 157.659C131.976 157.659 131.444 157.659 131.444 158.724C131.444 159.257 131.976 159.79 133.04 160.855C134.637 161.92 135.169 162.985 134.637 164.051C134.104 165.649 133.04 166.714 130.379 166.181C129.315 166.181 128.251 165.649 127.718 165.116L128.251 163.518L128.783 164.051ZM127.186 161.388L123.461 160.855L122.929 163.518L127.186 164.051V165.649L121.333 164.583L122.929 154.996L128.783 156.061V157.659L125.058 157.127L124.525 159.79L128.251 160.322V161.92L127.186 161.388ZM119.204 164.051C118.672 164.051 117.075 164.583 116.011 164.051C114.414 164.051 113.35 163.518 112.286 162.453C111.754 161.388 111.221 160.322 111.221 158.724C111.754 155.529 113.882 153.931 117.075 154.463C118.14 154.463 119.204 154.996 119.736 155.529L119.204 157.127C118.672 156.594 118.14 156.594 117.075 156.594C114.947 156.061 113.35 157.127 113.35 159.79C112.818 161.92 114.414 163.518 116.011 163.518C116.543 163.518 117.075 163.518 117.607 163.518L118.14 160.855H116.543V159.257L119.736 159.79L119.204 164.583V164.051ZM109.625 158.724L105.9 158.192L105.368 160.855L109.625 161.388V162.985L103.771 162.453L104.836 152.865L110.689 153.398V154.996L106.964 154.463V157.127L110.689 157.659V159.257L109.625 158.724ZM96.321 160.322C96.8532 160.855 97.9175 160.855 98.4496 160.855C99.514 160.855 100.046 160.322 100.046 159.79C100.046 159.257 99.514 158.724 98.4496 158.192C96.8532 157.659 95.7888 156.594 95.7888 154.996C95.7888 153.398 97.3853 152.333 99.514 152.333C100.578 152.333 101.11 152.865 101.643 152.865L101.11 154.463C100.578 154.463 100.046 153.931 98.9818 153.931C97.9175 153.931 97.3853 154.463 97.3853 154.996C97.3853 155.529 97.9175 156.061 98.9818 156.594C100.578 157.127 101.643 158.192 101.11 159.79C101.11 161.388 99.514 162.453 97.3853 162.453C96.321 162.453 95.2567 161.92 94.7245 161.92L95.2567 160.322H96.321ZM91.5316 157.659H87.8064V160.322H92.0637V161.92H86.21L86.7421 152.333H92.5959V153.931H88.8708V156.594H92.5959V158.192L91.5316 157.659ZM76.0989 161.92V152.333H78.2276L80.8884 156.594C81.4205 157.659 81.9527 158.724 82.4848 159.79C82.4848 158.724 82.4848 157.127 82.4848 155.529V152.333H84.0813V161.92H82.4848L79.824 157.659C79.2919 156.594 78.7597 155.529 78.2276 154.463C78.2276 155.529 78.2276 157.127 78.2276 158.724V162.453H76.6311L76.0989 161.92ZM73.9703 152.333V161.92H72.3738V152.333H73.9703ZM68.6487 158.192C68.6487 157.127 68.1165 155.529 68.1165 153.931C68.1165 154.996 67.5844 156.594 67.0522 157.659L65.9879 161.92H64.3914L62.7949 157.659C62.2628 156.594 61.7306 154.996 61.7306 153.931C61.7306 154.996 61.7306 156.594 61.7306 158.192V161.92H60.1341V152.333H62.2628L63.8592 156.061C64.3914 157.127 64.3914 158.192 64.9236 159.257C64.9236 158.192 65.4557 157.127 65.4557 155.529L66.52 151.268H68.6487L69.713 160.855H68.1165L67.5844 157.127L68.6487 158.192ZM58.5376 158.724L54.8125 159.257L55.3447 161.92L59.602 161.388V162.985L53.7482 163.518L52.6839 153.931L58.5376 153.398V154.996L54.8125 155.529V158.192L58.5376 157.659V159.257V158.724ZM45.7658 162.453C46.2979 162.453 47.3623 162.985 48.4266 162.985C49.4909 162.985 50.0231 162.453 50.0231 161.388C50.0231 160.855 49.4909 160.322 47.8944 159.79C46.2979 159.257 45.2336 158.724 44.7015 157.127C44.7015 155.529 45.7658 153.931 47.8944 153.931C48.9587 153.931 49.4909 153.931 50.0231 153.931V155.529C49.4909 155.529 48.9587 154.996 47.8944 155.529C46.8301 155.529 46.2979 156.061 46.2979 157.127C46.2979 157.659 46.8301 158.192 48.4266 158.724C50.0231 159.257 51.0874 159.79 51.0874 161.388C51.0874 162.985 50.0231 164.583 47.8944 164.583C46.8301 164.583 45.7658 164.583 45.2336 164.051V162.453H45.7658ZM39.912 165.116L38.3155 163.518C37.7834 162.985 37.2512 162.453 37.2512 161.92C37.2512 162.453 36.7191 162.985 36.7191 164.051L36.1869 166.181L34.0583 166.714L36.1869 161.388L32.4618 157.127L34.5904 156.594L36.1869 158.192C36.7191 158.724 36.7191 159.257 37.2512 159.79C37.2512 159.257 37.7834 158.724 37.7834 158.192L38.3155 156.061L40.4442 155.529L38.3155 160.855L42.0407 165.116L39.912 165.649V165.116Z" fill="#234035"/>
<path d="M69.7131 28.7621C69.7131 28.7621 60.6664 20.7726 74.5026 11.1853C86.7422 2.66316 86.7422 0 86.7422 0C86.7422 0 87.8065 11.1853 83.5493 15.4463C83.5493 15.4463 88.8709 14.3811 89.9352 9.58737C89.9352 9.58737 101.643 20.24 91.5317 28.7621H69.7131Z" fill="#F8DCB3"/>
<path d="M114.946 38.3496C114.946 38.3496 107.496 30.3601 121.332 22.3707C133.572 15.4464 134.104 13.3159 134.104 13.3159C134.104 13.3159 134.104 23.9685 129.315 27.1643C129.315 27.1643 134.104 26.6317 135.701 22.3707C135.701 22.3707 145.28 33.0233 135.169 40.4801L114.946 38.3496Z" fill="#F8DCB3"/>
<path d="M26.608 40.4799C26.608 40.4799 17.5613 34.0883 29.2688 23.4357C39.912 13.8483 39.3799 11.7178 39.3799 11.7178C39.3799 11.7178 41.5085 21.8378 37.7834 26.6315C37.7834 26.6315 42.5728 25.0336 43.105 20.7725C43.105 20.7725 54.8125 29.2946 46.8301 38.3494L26.608 40.4799Z" fill="#F8DCB3"/>
</svg>
