<svg width="818" height="578" viewBox="0 0 818 578" fill="none" xmlns="http://www.w3.org/2000/svg">
<path d="M551.29 577.672C548.918 577.61 546.545 577.548 543.297 577.471C528.986 577.628 516.766 572.99 504.655 567.92C504.655 567.92 504.627 567.866 504.349 567.657C499.063 564.51 494.055 561.572 489.13 558.155C489.175 546.193 488.997 534.71 489.123 523.229C489.409 497.278 489.806 471.327 490.233 445.377C490.496 429.415 490.899 413.455 491.238 397.494C491.845 390.713 492.359 383.923 493.073 377.154C495.915 350.222 498.309 323.228 501.936 296.401C503.522 284.664 507.426 273.204 510.715 261.743C516.437 241.805 543.536 230.51 560.581 239.46C564.822 241.687 569.34 243.388 574.153 245.601C574.576 245.871 574.979 245.895 574.979 245.895L575.331 245.686C575.771 245.567 576.21 245.448 577.064 245.713C579.043 247.494 580.518 249.01 582.19 250.264C587.879 254.531 594.377 257.998 599.216 263.061C609.284 273.595 618.566 284.888 628.013 296.003C632.835 301.676 637.42 307.56 641.92 313.494C646.433 319.446 650.645 325.626 655.105 331.618C658.834 336.628 662.894 341.396 666.511 346.482C671.02 352.821 675.216 359.382 679.618 365.798C679.71 365.932 680.667 365.472 681.221 365.289C692.66 381.251 704.099 397.213 715.676 413.653C716.06 414.266 716.307 414.4 716.553 414.535C716.553 414.535 716.814 414.773 716.616 415.221C711.386 418.683 706.574 422.181 701.268 424.594C693.843 427.971 686.051 430.54 678.087 433.335C674.365 429.859 671.227 426.187 667.532 423.205C656.82 414.563 645.968 406.09 635.013 397.756C623.678 389.133 611.71 381.284 600.849 372.114C590.348 363.248 580.545 353.468 571.109 343.454C563.666 335.555 556.71 327.088 551.938 317.123C550.63 314.391 548.969 311.829 546.779 307.971C546.653 310.403 546.259 311.501 546.61 312.249C550.481 320.494 553.301 329.563 558.671 336.704C569.427 351.005 581.518 364.293 596.078 375.081C598.097 376.576 599.476 379.542 600.178 382.095C602.505 390.552 604.13 399.203 606.494 407.648C610.643 422.472 615.121 437.205 619.502 451.964C621.033 457.122 622.686 462.244 624.287 467.845C624.292 470.091 624.088 471.903 624.341 473.649C624.808 476.871 625.544 480.054 626.379 483.296C626.59 483.339 627.018 483.396 627.108 483.853C627.056 489.689 626.913 495.069 626.647 500.767C626.459 502.438 626.395 503.789 626.394 505.266C626.457 505.391 626.223 505.545 626.021 505.862C625.714 508.286 625.61 510.393 625.554 512.91C624.306 518.22 623.693 523.443 621.561 527.947C617.93 535.618 613.344 542.837 608.877 550.372C607.85 551.47 607.104 552.442 606.041 553.518C603.237 556.168 600.751 558.712 598.265 561.257C598.265 561.257 598.182 561.236 597.831 561.32C583.727 571.493 567.796 575.399 551.29 577.672Z" fill="#FAA130"/>
<path d="M90.4223 192.721C94.9734 184.811 99.5244 176.901 104.311 168.641C104.479 168.331 104.411 168.369 104.343 168.407C101.067 170.509 97.7055 172.493 94.5454 174.757C92.6557 176.111 91.0808 177.904 89.1198 179.21C95.2061 163.221 109.345 147.96 132.898 149.172C134.807 149.269 135.864 149.156 136.786 149.457C143.956 151.793 150.311 151.456 155.93 145.421C157.804 143.407 161.157 142.121 163.991 141.769C173.334 140.61 182.942 138.444 192.097 139.558C211.283 141.892 230.244 146.07 249.49 149.762C265.998 158.597 273.816 172.993 277 190.448C275.085 188.631 273.324 186.821 271.98 184.742C266.273 175.911 258.193 170.481 248.174 167.731C240.552 165.639 232.882 164.049 224.441 165.089C240.184 189.933 253.807 214.736 251.254 246.138C247.873 233.174 244.8 221.387 241.726 209.6C241.539 209.707 241.352 209.814 241.164 209.921C241.598 228.709 242.031 247.496 242.368 266.666C242.034 268.846 241.797 270.643 241.441 272.795C240.896 274.229 240.664 275.447 240.009 276.365C236.985 280.603 238.253 283.48 242.035 286.739C255.229 298.109 270.206 306.14 286.777 311.09C297.546 314.307 306.997 319.4 315.019 327.753C317.569 331.103 319.934 334.156 322.299 337.209C322.074 337.43 321.85 337.651 321.625 337.871C320.354 337.238 319.082 336.605 317.63 335.761C314.122 333.871 310.795 332.193 307.468 330.515C307.845 330.35 308.222 330.184 308.599 330.019C312.071 334.409 315.543 338.799 319.152 343.524C323.828 352.994 328.368 362.13 332.982 371.676C334.169 376.087 335.388 380.061 336.367 384.094C337.387 388.294 338.295 392.529 339.029 396.788C339.701 400.687 340.074 404.637 340.712 409.597C329.253 398.003 315.584 397.957 300.949 396.251C308.116 406.161 314.43 414.892 320.934 423.913C326.831 431.142 332.538 438.079 338.245 445.017C307.208 442.985 277.126 438.176 253.277 415.232C252.949 415.537 252.621 415.843 252.293 416.148C253.425 418.149 254.476 420.203 255.713 422.137C257.012 424.166 258.489 426.081 259.353 428.472C249.181 421.6 240.26 413.655 235.324 401.403C235.165 400.864 235.002 400.447 235.002 400.447C234.928 399.904 234.854 399.361 234.689 398.37C234.597 397.921 234.339 397.705 234.339 397.705C234.339 397.705 234.108 397.36 233.575 396.97C225.268 396.224 217.495 395.867 209.28 395.429C203.992 394.69 199.145 394.034 193.947 393.246C184.847 390.816 176.51 387.949 170.018 381.001C156.646 366.689 152.403 349.724 154.751 330.756C155.588 323.993 156.947 317.297 157.969 310.555C159.526 300.281 154.753 291.879 145.429 287.574C138.193 284.233 130.956 280.823 124.034 276.89C103.267 265.091 89.5158 248.086 87.8126 223.566C87.1427 213.921 88.7924 204.116 89.3859 194.383C89.3859 194.383 89.3176 194.383 89.6038 194.355C90.0674 193.792 90.2448 193.256 90.4223 192.721Z" fill="#503842"/>
<path d="M338.516 445.247C332.538 438.079 326.831 431.141 321.299 423.735C329.077 419.324 336.954 415.817 344.182 411.278C348.529 408.549 352.496 403.305 349.932 398.303C345.093 388.862 338.672 380.232 332.908 371.265C328.368 362.13 323.828 352.994 319.164 343.189C318.63 340.337 318.22 338.154 317.811 335.972C319.082 336.605 320.354 337.238 321.625 337.871C321.85 337.65 322.074 337.43 322.299 337.209C319.934 334.156 317.569 331.103 315.074 327.331C312.95 310.598 314.711 295.45 325.517 282.109C331.696 281.141 337.51 280.365 343.242 279.915C329.848 298.26 328.331 318.016 335.756 338.441C342.639 357.377 357.168 370.192 373.21 381.388C373.971 381.919 376.425 381.463 376.939 380.695C384.969 368.706 394.138 357.13 393.376 341.466C393.211 338.077 394.679 336.366 397.927 335.394C406.01 332.977 414.004 330.259 422.033 327.662C425.184 329.79 428.322 331.937 431.488 334.042C442.018 341.042 448.58 350.817 450.391 363.239C452.382 376.895 460.155 385.305 472.477 390.238C478.473 392.639 484.488 394.994 490.866 397.432C490.899 413.454 490.496 429.414 490.234 445.377C489.806 471.327 489.409 497.277 489.123 523.229C488.997 534.709 489.175 546.193 488.779 558.099C486.994 558.133 485.643 557.743 484.292 557.352C484.292 557.352 483.998 557.26 483.657 557.074C482.993 556.741 482.668 556.593 482.344 556.445C458.701 545.165 436.368 531.748 415.316 516.12C387.267 495.297 362.281 471.208 338.516 445.247Z" fill="#CAD9BA"/>
<path d="M249.297 149.49C230.244 146.069 211.282 141.892 192.097 139.558C182.942 138.444 173.334 140.61 163.991 141.769C161.156 142.121 157.804 143.407 155.929 145.421C150.311 151.456 143.956 151.793 136.785 149.456C135.863 149.156 134.806 149.269 133.333 149.168C138.465 142.836 143.978 136.436 149.703 130.231C173.145 104.824 196.479 79.3102 215.799 50.517C221.799 41.5749 226.323 31.6359 232.41 22.7615C237.231 15.7339 243.406 9.63584 249.511 2.75926C251.122 1.94121 252.201 1.48891 253.28 1.03662C254.352 1.0566 255.424 1.07658 257.202 1.23373C259.375 1.97964 260.843 2.58837 262.31 3.1971C262.31 3.1971 262.351 3.35961 262.576 3.62863C265.99 7.04517 269.18 10.1927 271.995 13.3488C269.375 15.2345 265.023 17.4676 265.269 18.9234C266.077 23.7013 268.045 28.494 270.516 32.7274C273.743 38.2557 277.686 43.4062 281.688 48.4272C284.183 51.5578 288.785 53.6592 289.954 57.0742C293.436 67.2415 303.44 71.174 309.468 78.9672C317.118 88.859 327.595 96.6889 339.164 102.432C340.419 103.055 341.197 104.574 342.352 105.478C344.5 107.158 346.701 108.788 348.996 110.259C351.299 111.735 353.699 113.077 356.137 114.321C359.369 115.971 362.951 119.159 365.897 118.683C372.323 117.643 375.57 121.814 380.08 124.361C383.148 126.093 387.108 126.817 390.688 126.875C393.318 126.919 395.977 125.154 398.963 124.26C409.202 129.431 419.243 134.285 428.949 139.736C434.981 143.124 436.026 147.249 432.526 153.151C429.928 157.534 426.338 161.329 422.804 165.377C421.145 165.666 419.782 165.769 418.609 166.294C409.458 170.395 400.302 174.49 391.256 178.815C389.628 179.594 388.504 181.427 386.779 182.707C378.718 179.172 371.191 175.769 365.289 169.125C360.964 164.256 355.661 159.54 349.825 156.889C339.63 152.258 328.895 148.328 317.984 145.954C311.719 144.59 303.636 141.975 298.397 149.782C297.962 150.431 296.525 150.33 295.659 150.781C293.481 151.915 291.364 153.165 288.831 154.345C279.488 152.516 270.581 150.419 261.565 149.042C257.591 148.436 253.393 149.296 249.297 149.49Z" fill="#EAEAF0"/>
<path d="M289.222 154.369C291.364 153.165 293.482 151.915 295.66 150.781C296.525 150.33 297.962 150.431 298.397 149.782C303.636 141.975 311.719 144.59 317.984 145.954C328.895 148.328 339.631 152.258 349.825 156.888C355.661 159.54 360.964 164.256 365.289 169.125C371.191 175.769 378.718 179.172 387.001 182.934C391.296 185.407 395.002 187.585 399.025 189.994C401.979 191.64 404.614 193.055 407.25 194.47C418.105 201.511 429.104 208.343 439.784 215.64C457.901 228.018 476.401 239.977 491.492 256.181C494.493 259.404 496.716 263.452 498.837 267.37C501.427 272.151 500.537 276.747 497.801 281.493C488.747 297.197 474.216 306.067 458.428 313.15C446.774 318.379 434.706 322.689 422.428 327.535C414.003 330.259 406.01 332.977 397.927 335.394C394.679 336.366 393.211 338.077 393.376 341.466C394.138 357.13 384.969 368.705 376.938 380.695C376.424 381.463 373.971 381.919 373.21 381.388C357.168 370.192 342.639 357.377 335.756 338.441C328.331 318.016 329.848 298.26 343.673 279.821C354.142 278.679 364.097 277.958 374.503 277.275C393.76 276.295 411.998 272.093 430.119 267.318C433.771 266.355 433.86 264.448 430.847 261.728C426.537 257.839 422.01 254.129 418.124 249.846C413.467 244.715 409.758 238.705 404.979 233.705C394.56 222.803 383.903 212.112 372.982 201.712C367.346 196.345 361.055 191.766 352.272 193.286C348.877 193.874 345.224 192.926 341.811 193.462C327.567 195.699 318.041 187.344 308.545 178.951C307.51 178.037 307.349 176.132 306.783 174.687C308.445 174.378 310.107 173.841 311.768 173.843C312.849 173.845 313.928 174.636 315.01 175.067C319.358 176.802 323.707 178.534 328.055 180.268C328.089 178.707 327.678 177.867 327.04 177.628C320.421 175.142 313.87 172.385 307.084 170.462C302.334 169.116 297.23 169.056 292.32 168.213C288.533 167.562 287.737 165.249 290.054 162.263C290.635 161.513 291.231 160.774 291.741 160.129C290.82 158.022 290.021 156.196 289.222 154.369Z" fill="#F7B9A7"/>
<path d="M89.0554 194.216C88.7924 204.116 87.1426 213.921 87.8125 223.566C89.5157 248.086 103.267 265.091 124.034 276.89C130.956 280.823 138.193 284.233 145.429 287.574C154.752 291.879 159.526 300.281 157.969 310.555C156.947 317.297 155.588 323.993 154.751 330.756C152.403 349.724 156.646 366.689 170.018 381.001C176.51 387.949 184.847 390.816 193.872 393.595C188.744 406.816 183.228 419.513 178.013 432.332C176.71 435.536 176.373 439.132 175.461 442.864C168.628 449.685 161.949 456.255 151.393 451.076C150.764 450.31 150.135 449.543 149.571 448.188C149.981 446.32 150.775 444.977 150.601 443.773C149.514 436.259 148.838 428.606 146.853 421.318C142.362 404.826 136.279 388.976 127.332 374.201C120.663 363.189 113.276 352.893 104.213 343.788C91.671 331.188 78.1695 319.877 63.672 309.427C51.7246 300.815 38.9868 294.429 25.5493 289.256C18.0965 286.388 9.89321 285.469 2.02817 283.671C2.02817 283.671 2.03698 283.602 1.97498 283.383C1.7506 282.868 1.53168 282.62 1.25622 282.423C-1.26273 276.042 -0.134179 270.613 5.92324 265.64C13.358 259.536 21.7265 254.532 28.9238 248.182C47.8447 231.49 66.349 214.326 85.0217 197.352C86.2456 196.239 87.4901 195.15 89.0554 194.216Z" fill="#EAEAEF"/>
<path d="M678.416 433.455C686.051 430.54 693.843 427.971 701.268 424.594C706.574 422.181 711.386 418.683 716.669 415.39C730.438 426.778 745.705 435.312 762.825 440.405C771.095 442.865 779.852 444.096 787.688 447.497C796.588 451.361 804.731 456.984 813.13 461.965C814.364 462.697 815.326 464.014 816.19 465.22C818.758 468.805 818.154 471.277 813.862 472.067C807.679 473.205 801.359 473.978 795.08 474.126C785.605 474.35 776.107 473.594 766.632 473.824C756.837 474.061 747.059 474.977 736.439 475.546C725.9 478.675 716.076 481.534 706.528 485.126C697.439 488.545 688.929 484.877 685.516 475.341C684.318 471.994 683.033 468.678 681.682 464.909C680.522 454.132 679.469 443.794 678.416 433.455Z" fill="#F4B6A3"/>
<path d="M681.789 465.348C683.034 468.678 684.319 471.994 685.516 475.341C688.929 484.877 697.439 488.545 706.528 485.126C716.076 481.534 725.901 478.675 735.984 475.528C732.987 477.802 735.514 479.12 737.269 480.147C746.951 485.808 756.439 491.893 766.503 496.782C777.362 502.058 787.21 508.446 796.007 517.478C796.72 518.012 797.002 518.19 797.284 518.368C797.46 518.648 797.636 518.928 798.144 519.511C798.667 520.092 798.926 520.268 799.255 520.341C799.255 520.341 799.243 520.396 799.326 520.72C800.61 522.561 801.812 524.078 803.014 525.595C803.014 525.595 803.169 525.388 803.114 525.892C804.231 530.868 802.15 532.85 797.923 532.369C787.395 531.171 776.86 529.94 766.397 528.286C756.601 526.739 746.894 524.632 736.785 522.587C732.68 522.123 728.938 521.842 724.743 521.464C713.087 522.319 701.845 522.954 690.694 524.331C682.147 525.386 675.765 522.67 673.523 515.439C670.676 506.255 670.725 496.878 671.731 487.346C672.432 480.701 672.004 473.936 672.537 467.232C675.925 466.609 678.857 465.978 681.789 465.348Z" fill="#E3A698"/>
<path d="M2.14355 283.98C9.89323 285.469 18.0965 286.388 25.5493 289.256C38.9868 294.429 51.7247 300.815 63.672 309.427C78.1695 319.877 91.6711 331.187 104.213 343.788C113.276 352.893 120.663 363.189 127.332 374.201C136.279 388.975 142.362 404.826 146.853 421.318C148.838 428.606 149.514 436.259 150.601 443.773C150.775 444.976 149.981 446.32 149.485 447.901C146.331 443.088 142.263 438.312 140.504 432.8C132.173 406.692 116.075 385.616 97.8331 366.03C84.353 351.557 70.7646 337.001 55.7826 324.165C42.5758 312.851 27.3043 303.962 13.0938 293.793C9.2061 291.011 5.85583 287.478 2.14355 283.98Z" fill="#DDE0E7"/>
<path d="M681.249 364.912C680.667 365.472 679.709 365.932 679.617 365.798C675.215 359.382 671.02 352.821 666.511 346.482C662.894 341.396 658.833 336.628 655.105 331.619C650.645 325.626 646.433 319.446 641.92 313.495C637.42 307.56 632.835 301.677 628.013 296.004C618.566 284.888 609.284 273.595 599.216 263.061C594.377 257.998 587.879 254.531 582.19 250.264C580.518 249.01 579.043 247.494 577.404 245.765C588.74 239.969 600.206 239.714 611.014 246.478C629.939 258.322 644.218 274.568 653.096 295.044C662.25 316.154 670.594 337.615 679.271 358.931C680.018 360.767 680.612 362.665 681.249 364.912Z" fill="#ED8D00"/>
<path d="M803.151 525.293C801.812 524.078 800.61 522.561 799.354 520.723C800.952 520.846 802.604 521.29 804.592 521.825C804.077 523.075 803.682 524.033 803.151 525.293Z" fill="#234035"/>
<path d="M262.223 2.89041C260.843 2.58779 259.376 1.97927 257.604 1.20425C259.88 -1.47358 260.909 0.865493 262.223 2.89041Z" fill="#234035"/>
<path d="M253.149 0.791992C252.201 1.48893 251.122 1.94107 249.706 2.495C250.585 1.9136 251.802 1.2304 253.149 0.791992Z" fill="#234035"/>
<path d="M806.619 536.395C806.406 536.477 806.197 536.427 805.988 536.377C806.2 536.339 806.412 536.301 806.619 536.395Z" fill="#234035"/>
<path d="M716.57 414.395C716.307 414.4 716.06 414.266 715.891 413.975C716.268 413.802 716.474 413.947 716.57 414.395Z" fill="#F4B6A3"/>
<path d="M90.1017 192.774C90.2446 193.256 90.0672 193.791 89.6081 194.389C89.478 193.91 89.6296 193.369 90.1017 192.774Z" fill="#EAEAEF"/>
<path d="M799.122 520.153C798.926 520.268 798.667 520.092 798.385 519.594C798.558 519.532 798.79 519.73 799.122 520.153Z" fill="#234035"/>
<path d="M797.128 518.175C797.002 518.189 796.72 518.011 796.308 517.615C796.475 517.547 796.74 517.742 797.128 518.175Z" fill="#234035"/>
<path d="M234.946 400.556C235.002 400.447 235.164 400.864 235.155 401.086C234.934 401.142 234.849 400.927 234.946 400.556Z" fill="#234035"/>
<path d="M234.353 397.766C234.339 397.705 234.597 397.921 234.527 397.99C234.457 398.059 234.367 397.827 234.353 397.766Z" fill="#234035"/>
<path d="M482.542 556.622C482.668 556.593 482.992 556.741 483.504 557.089C483.374 557.127 483.057 556.963 482.542 556.622Z" fill="#234035"/>
<path d="M1.29199 282.687C1.53201 282.62 1.75093 282.868 2.0069 283.399C1.84279 283.405 1.58511 283.178 1.29199 282.687Z" fill="#DDE0E7"/>
<path d="M575.087 245.622C575.331 245.686 574.979 245.894 574.979 245.894C574.979 245.894 574.576 245.87 574.467 245.786C574.52 245.654 574.681 245.606 575.087 245.622Z" fill="#ED8D00"/>
<path d="M681.682 464.909C678.857 465.978 675.924 466.609 672.345 466.987C670.806 464.867 669.914 462.998 669.023 461.13C669.023 461.13 669.019 460.657 668.81 460.144C667.43 457.855 666.26 456.079 665.09 454.303C665.068 454.127 665.046 453.951 664.828 453.356C663.929 451.988 663.226 451.039 662.523 450.091C662.523 450.091 662.514 450.166 662.447 449.837C660.917 447.602 659.455 445.695 657.992 443.787C657.992 443.787 657.973 443.742 657.874 443.428C657.059 442.404 656.344 441.694 655.629 440.985C655.629 440.985 655.605 441.068 655.59 440.726C654.217 438.679 652.86 436.975 651.503 435.27C651.15 434.624 650.796 433.979 650.086 432.913C648.585 431.173 647.44 429.853 646.296 428.532C646.125 428.219 645.954 427.905 645.493 427.136C639.147 419.117 633.091 411.552 626.448 403.255C626.832 413.841 627.307 422.936 627.457 432.036C627.678 445.478 627.668 458.924 627.651 472.814C627.569 476.318 627.594 479.377 627.467 482.676C627.217 483.075 627.117 483.236 627.018 483.396C627.018 483.396 626.59 483.339 626.4 482.839C626.21 462.669 626.21 442.999 626.21 423.329C625.295 435.753 625.345 448.178 625.249 460.602C625.232 462.864 624.621 465.122 624.284 467.382C622.686 462.244 621.033 457.122 619.502 451.964C615.121 437.205 610.643 422.472 606.494 407.647C604.13 399.202 602.505 390.551 600.179 382.095C599.476 379.542 598.097 376.576 596.078 375.08C581.518 364.293 569.427 351.005 558.671 336.704C553.301 329.563 550.481 320.493 546.61 312.248C546.259 311.501 546.654 310.403 546.779 307.971C548.969 311.829 550.63 314.391 551.938 317.123C556.71 327.088 563.666 335.555 571.109 343.454C580.545 353.468 590.348 363.248 600.849 372.114C611.711 381.284 623.679 389.133 635.013 397.756C645.968 406.089 656.82 414.563 667.532 423.205C671.227 426.186 674.365 429.859 678.087 433.335C679.469 443.794 680.522 454.132 681.682 464.909Z" fill="#ED8D00"/>
<path d="M624.287 467.845C624.621 465.122 625.232 462.864 625.249 460.602C625.345 448.178 625.295 435.754 626.21 423.33C626.21 442.999 626.21 462.669 626.189 482.796C625.544 480.054 624.808 476.871 624.341 473.649C624.088 471.903 624.292 470.091 624.287 467.845Z" fill="#ED8D00"/>
<path d="M626.021 505.862C626.108 507.64 625.993 509.736 625.692 512.166C625.61 510.393 625.714 508.286 626.021 505.862Z" fill="#ED8D00"/>
<path d="M626.647 500.767C626.881 501.179 626.99 501.91 627.108 503.315C627.157 504.439 627.197 504.89 627.237 505.341C627.237 505.341 626.771 505.298 626.551 505.219C626.395 503.789 626.459 502.438 626.647 500.767Z" fill="#ED8D00"/>
<path d="M288.831 154.345C290.021 156.196 290.82 158.022 291.741 160.129C291.231 160.774 290.635 161.514 290.054 162.263C287.737 165.249 288.533 167.562 292.321 168.213C297.23 169.056 302.334 169.116 307.084 170.462C313.87 172.385 320.421 175.142 327.04 177.628C327.678 177.867 328.089 178.708 328.055 180.268C323.707 178.534 319.358 176.802 315.01 175.067C313.928 174.636 312.85 173.845 311.768 173.843C310.107 173.841 308.445 174.379 306.783 174.687C307.349 176.132 307.51 178.037 308.545 178.952C318.041 187.344 327.567 195.699 341.811 193.462C345.224 192.927 348.877 193.874 352.272 193.286C361.055 191.766 367.346 196.345 372.983 201.713C383.903 212.112 394.56 222.804 404.979 233.705C409.758 238.705 413.467 244.715 418.124 249.847C422.01 254.129 426.537 257.839 430.847 261.728C433.86 264.448 433.771 266.355 430.119 267.318C411.998 272.093 393.76 276.295 374.411 276.963C371.049 274.49 368.228 272.367 365.615 269.981C366.857 268.671 367.891 267.624 369.325 266.588C372.516 267.256 375.309 267.913 378.242 268.76C378.489 268.623 378.596 268.294 378.589 267.662C376.961 265.842 375.447 264.326 374.223 262.568C378.917 258.174 383.322 254.023 388.189 249.436C379.83 244.259 372.595 239.779 365.173 235.024C362.425 232.88 359.866 231.012 357.135 228.87C350.713 222.884 344.463 217.172 338.004 211.2C329.48 205.539 321.237 200.02 312.794 194.826C310.799 193.598 308.1 192.827 305.777 192.938C297.014 193.357 288.273 194.227 279.383 194.635C278.585 193.484 277.928 192.625 277.418 191.582C277.644 191.261 277.822 191.07 277.784 191C277.643 190.745 277.429 190.53 277.276 190.284C277.309 190.267 277.345 190.333 277.345 190.333C273.815 172.993 265.998 158.597 249.49 149.762C253.393 149.296 257.591 148.436 261.565 149.043C270.582 150.419 279.488 152.517 288.831 154.345Z" fill="#E4A798"/>
<path d="M277.271 191.767C277.928 192.625 278.585 193.484 279.411 194.936C283.065 203.235 286.88 210.812 289.946 218.68C293.518 227.843 296.411 237.265 293.524 247.549C290.688 250.866 288.004 253.909 285.506 257.097C284.495 258.387 283.891 259.996 282.774 261.282C280.715 261.054 278.752 260.441 277.289 261.043C266.085 265.654 254.465 267.149 242.464 266.284C242.031 247.496 241.597 228.709 241.164 209.921C241.351 209.814 241.539 209.707 241.726 209.6C244.8 221.387 247.873 233.174 251.254 246.138C253.807 214.736 240.184 189.933 224.44 165.089C232.882 164.049 240.552 165.639 248.174 167.731C258.193 170.481 266.273 175.911 271.98 184.742C273.324 186.821 275.085 188.631 277 190.448C277.345 190.333 277.309 190.267 277.188 190.653C277.134 191.281 277.203 191.524 277.271 191.767Z" fill="#F1B5A4"/>
<path d="M325.152 282.3C314.711 295.45 312.95 310.599 314.889 327.034C306.998 319.4 297.546 314.307 286.777 311.09C270.206 306.14 255.229 298.109 242.035 286.739C238.253 283.48 236.985 280.603 240.009 276.365C240.664 275.447 240.896 274.229 241.788 272.867C245.676 273.814 249.033 275.295 252.537 276.226C264.688 279.457 276.733 279.681 288.692 274.495C292.996 284.303 300.218 286.704 309.918 284.443C314.892 283.284 320.067 282.987 325.152 282.3Z" fill="#F4B9A7"/>
<path d="M332.982 371.676C338.672 380.232 345.093 388.863 349.932 398.303C352.496 403.305 348.529 408.549 344.182 411.278C336.953 415.817 329.077 419.324 321.108 423.444C314.43 414.892 308.116 406.161 300.949 396.25C315.584 397.957 329.253 398.003 340.712 409.597C340.074 404.636 339.701 400.686 339.029 396.788C338.295 392.529 337.386 388.294 336.367 384.094C335.388 380.061 334.169 376.087 332.982 371.676Z" fill="#F2B7A6"/>
<path d="M288.442 274.273C276.733 279.681 264.688 279.457 252.536 276.227C249.033 275.295 245.676 273.814 241.906 272.513C241.797 270.643 242.034 268.846 242.368 266.666C254.465 267.149 266.085 265.655 277.289 261.043C278.752 260.441 280.715 261.054 282.895 261.629C284.049 263.439 284.755 264.725 285.448 266.343C286.437 269.207 287.44 271.74 288.442 274.273Z" fill="#CF9384"/>
<path d="M209.28 395.429C198.541 411.105 187.36 426.699 175.886 442.42C176.373 439.132 176.71 435.535 178.013 432.332C183.228 419.513 188.744 406.816 194.223 393.726C199.145 394.033 203.992 394.69 209.28 395.429Z" fill="#D4D7E0"/>
<path d="M317.63 335.761C318.22 338.154 318.63 340.337 319.027 342.854C315.543 338.799 312.071 334.409 308.599 330.02C308.222 330.185 307.845 330.35 307.468 330.515C310.795 332.193 314.122 333.871 317.63 335.761Z" fill="#E4B3AB"/>
<path d="M104.324 168.389C104.411 168.369 104.479 168.33 104.406 168.314C104.267 168.337 104.305 168.371 104.324 168.389Z" fill="#234035"/>
<path d="M288.692 274.495C287.44 271.74 286.437 269.206 285.885 266.294C300.251 263.46 314.167 261.005 328.522 258.5C334.065 257.441 339.17 256.434 344.65 255.493C345.785 255.52 346.544 255.48 347.549 255.49C347.961 255.511 348.126 255.483 348.695 255.539C357.769 256.665 366.492 257.526 373.934 262.81C375.447 264.326 376.961 265.842 378.437 267.812C378.399 268.265 378.101 268.57 378.101 268.57C375.309 267.913 372.516 267.256 368.973 266.492C364.032 265.584 359.854 264.866 355.593 268.571C359.329 269.208 362.368 269.726 365.407 270.244C368.228 272.367 371.049 274.49 373.961 276.925C364.097 277.958 354.142 278.68 343.755 279.494C337.509 280.365 331.696 281.141 325.517 282.109C320.067 282.987 314.892 283.284 309.918 284.443C300.217 286.704 292.996 284.303 288.692 274.495Z" fill="#533A45"/>
<path d="M271.996 13.3491C277.7 19.7651 282.89 26.3133 288.397 32.5832C295.413 40.5716 302.632 48.3843 309.857 56.1863C335.4 83.7693 365.336 105.616 398.4 123.923C395.977 125.155 393.318 126.919 390.688 126.876C387.109 126.817 383.148 126.093 380.081 124.361C375.57 121.815 372.323 117.643 365.897 118.683C362.952 119.16 359.369 115.971 356.137 114.322C353.7 113.078 351.299 111.735 348.996 110.259C346.701 108.789 344.5 107.159 342.352 105.478C341.197 104.574 340.419 103.055 339.164 102.432C327.596 96.6892 317.118 88.8594 309.468 78.9676C303.44 71.1743 293.436 67.2418 289.954 57.0745C288.785 53.6596 284.183 51.5581 281.688 48.4275C277.686 43.4066 273.743 38.256 270.517 32.7277C268.046 28.4944 266.077 23.7017 265.269 18.9238C265.023 17.468 269.375 15.2348 271.996 13.3491Z" fill="#E1E3EB"/>
<path d="M422.805 165.377C415.188 173.376 407.187 181.366 398.947 189.56C395.002 187.585 391.296 185.407 387.369 183.001C388.504 181.427 389.628 179.594 391.257 178.815C400.302 174.49 409.458 170.395 418.609 166.295C419.783 165.769 421.145 165.666 422.805 165.377Z" fill="#D6D7E2"/>
<path d="M646.317 428.896C647.44 429.853 648.585 431.173 649.811 432.826C648.709 431.859 647.524 430.559 646.317 428.896Z" fill="#234035"/>
<path d="M662.501 450.465C663.226 451.039 663.929 451.988 664.628 453.18C663.908 452.561 663.194 451.7 662.501 450.465Z" fill="#234035"/>
<path d="M655.6 441.36C656.344 441.695 657.059 442.404 657.852 443.416C657.143 443.059 656.356 442.397 655.6 441.36Z" fill="#234035"/>
<path d="M328.083 258.55C314.167 261.005 300.251 263.46 285.898 265.963C284.755 264.725 284.049 263.439 283.223 261.806C283.891 259.995 284.495 258.387 285.505 257.097C288.004 253.909 290.688 250.866 293.854 247.38C309.012 235.149 323.612 223.305 338.212 211.46C344.463 217.172 350.713 222.884 356.881 229.1C347.226 239.253 337.655 248.902 328.083 258.55Z" fill="#D6D9E0"/>
<path d="M338.005 211.2C323.612 223.305 309.012 235.15 294.081 247.163C296.411 237.265 293.518 227.843 289.947 218.68C286.88 210.812 283.065 203.235 279.553 195.229C288.273 194.227 297.015 193.357 305.777 192.938C308.1 192.827 310.799 193.598 312.795 194.826C321.238 200.02 329.481 205.539 338.005 211.2Z" fill="#EBEAEF"/>
<path d="M277.418 191.581C277.202 191.523 277.134 191.28 277.154 190.669C277.429 190.53 277.643 190.745 277.783 191C277.822 191.07 277.644 191.261 277.418 191.581Z" fill="#503842"/>
<path d="M378.551 268.116C378.596 268.295 378.489 268.623 378.242 268.76C378.101 268.57 378.399 268.266 378.551 268.116Z" fill="#533A45"/>
<path d="M347.549 255.49C347.518 255.173 347.777 255.107 348.186 255.348C348.126 255.483 347.961 255.511 347.549 255.49Z" fill="#234035"/>
</svg>
