<svg width="571" height="732" viewBox="0 0 571 732" fill="none" xmlns="http://www.w3.org/2000/svg">
<path d="M360.994 336.146C359.558 334.287 356.93 332.419 356.943 330.569C356.967 327.111 360.13 326.689 363.199 326.892C366.136 327.088 369.094 326.966 372.507 326.966C396.847 326.577 420.585 324.835 444.238 321.272C470.524 317.313 495.903 310.844 519.305 297.859C523.507 295.528 527.573 292.953 532.238 290.216C533.844 289.28 534.915 288.618 536.308 287.864C538.748 286.112 540.866 284.454 543.313 282.746C546.977 279.974 550.464 277.41 553.558 274.436C554.571 273.463 555.327 271.163 554.899 269.919C551.778 260.862 548.325 251.919 544.976 242.941C532.284 213.209 519.664 183.446 506.847 153.768C503.779 146.663 500.703 139.419 496.501 132.976C487.203 118.716 477.187 104.924 467.465 90.9397C466.425 89.444 464.653 87.9885 464.548 86.4253C464.4 84.2227 464.877 81.3199 466.284 79.9162C467.138 79.0647 471.059 79.7429 472.202 81.0034C476.417 85.6487 480.558 90.5131 483.807 95.855C495.764 115.518 508.776 134.72 518.728 155.378C531.948 182.823 542.673 211.471 554.704 240.245C558.295 250.624 561.529 260.405 565.074 270.071C566.43 273.768 565.715 276.466 562.842 278.94C559.818 281.544 556.908 284.28 553.633 287.082C548.888 290.751 544.458 294.295 540.028 297.84C532.481 301.988 524.993 306.248 517.376 310.262C497.02 320.988 474.994 326.281 452.497 330.034C430.562 333.692 408.531 336.189 386.25 336.062C383.794 336.048 381.334 336.673 378.048 336.881C371.812 336.556 366.403 336.351 360.994 336.146Z" fill="#CAD9BA"/>
<path d="M50.0936 440.884C43.5581 453.574 37.6664 466.652 30.3214 478.855C21.485 493.536 27.0751 505.274 35.6205 517.19C52.0189 540.056 70.9962 560.66 91.4802 579.801C116.082 602.791 141.288 625.145 169.754 643.423C179.849 649.904 190.13 656.083 202.574 656.66C209.887 656.999 216.819 655.26 222.637 650.707C226.939 647.34 230.999 643.591 234.779 639.642C247.766 626.077 265.421 629.716 274.544 644.662C275.727 646.6 275.559 651.017 274.142 652.537C271.391 655.486 268.433 653.131 266.276 650.481C265.861 649.971 265.613 649.324 265.201 648.81C257.53 639.22 250.21 638.73 241.294 647.216C237.559 650.771 234.186 654.807 230.076 657.851C214.546 669.355 197.65 668.703 180.99 661.312C162.048 652.909 145.572 640.314 129.833 627.075C112.444 612.449 95.6849 597.044 79.1066 581.493C58.1435 561.828 38.4921 540.929 23.0604 516.47C20.6817 512.7 18.868 508.549 17.0311 504.466C12.2301 493.797 16.8018 484.143 21.1996 474.926C27.7057 461.29 35.0749 448.064 42.1937 434.726C42.8052 433.58 44.2917 432.901 45.9651 432.23C47.7688 435.001 48.9792 437.547 50.1643 440.291C50.1389 440.489 50.0936 440.884 50.0936 440.884Z" fill="#CAD9BA"/>
<path d="M201.095 521.975C202.872 531.914 205.224 541.792 206.274 551.807C207.448 563.009 207.519 574.333 207.9 585.61C208.004 588.659 206.242 590.778 203.054 590.814C199.871 590.849 198.312 588.79 198.059 585.722C197.924 584.084 197.868 582.441 197.733 580.044C191.268 583.622 187.857 589.064 185.414 594.886C184.031 598.181 191.084 601.548 195.763 599.479C200.919 597.2 205.954 594.567 210.796 591.676C215.346 588.959 219.593 585.731 223.939 582.679C227.026 580.512 229.882 580.39 232.07 583.774C233.973 586.717 232.984 589.135 230.131 590.927C222.268 595.863 214.755 601.506 206.476 605.597C189.007 614.229 185.028 611.167 174.542 600.685C158.465 584.612 143.194 567.691 128.205 550.582C115.759 536.376 104.113 521.462 92.3989 506.634C90.9465 504.795 90.8174 501.527 91.0198 498.997C91.0814 498.227 94.3344 497.174 96.0809 497.252C97.4045 497.312 98.9191 498.745 99.9017 499.935C114.462 517.579 128.75 535.45 143.521 552.914C152.842 563.935 162.847 574.378 172.573 585.054C173.679 586.268 174.963 587.321 176.441 588.708C178.972 585.167 180.923 581.431 183.804 578.664C187.267 575.338 191.22 572.196 195.525 570.177C199.038 568.529 198.162 566.052 197.869 564.007C196.297 553.03 194.628 542.053 192.472 531.179C191.089 524.2 188.809 517.4 186.577 510.169C186.158 509.513 186.092 509.208 186.026 508.903C186.026 508.903 186.096 509.002 186.126 508.639C185.627 506.366 185.206 504.418 184.553 502.551C176.023 478.18 165.045 454.969 151.444 433.014C149.618 430.066 148.389 427.056 152 424.825C155.383 422.735 157.589 425.024 159.239 427.822C163.12 434.4 167.21 440.871 170.756 447.627C175.673 456.995 180.168 466.584 184.891 476.446C187.928 484.683 191.034 492.511 193.876 500.433C196.432 507.56 198.7 514.79 201.095 521.975Z" fill="#CAD9BA"/>
<path d="M118.885 134.964C114.776 149.185 113.543 162.957 119.199 176.727C119.72 177.996 119.428 180.83 118.666 181.202C112.466 184.233 114.578 191.816 109.908 196.085C105.537 200.08 102.957 206.102 99.8276 211.374C89.7713 228.316 84.6008 246.956 80.9786 266.133C78.0649 281.559 78.2898 296.859 83.1554 311.848C85.8855 320.258 90.0132 327.966 95.9311 334.758C97.3178 336.349 97.8017 340.474 96.7111 342.091C94.812 344.907 91.777 344.316 89.0985 341.684C78.8286 331.592 73.5132 319.007 71.0829 305.207C65.7314 274.82 72.745 246.154 84.9357 218.626C89.5299 208.251 96.0917 198.717 102.127 189.031C103.866 186.239 106.894 184.251 110.006 181.242C109.561 179.85 108.612 177.425 108.016 174.917C103.339 155.225 105.628 136.1 114.619 118.213C120.577 106.359 127.207 94.6834 137.117 85.3359C153.235 70.1319 172.157 62.3333 194.408 63.0475C196.542 63.116 198.657 63.7114 200.786 64.0205C204.185 64.5137 206.474 65.9733 205.922 69.8859C205.341 73.9968 202.369 74.4326 199.203 73.789C189.977 71.9137 181.032 73.2393 172.191 75.8443C155.788 80.6774 143.449 91.2709 134.244 105.063C128.135 114.217 124.001 124.689 118.885 134.964Z" fill="#CAD9BA"/>
<path d="M202.106 278.951C196.125 275.155 189.712 276.629 184.544 279.555C174.083 285.481 163.363 291.55 154.429 299.457C131.206 320.01 113.26 345.215 95.3977 370.363C88.8756 379.544 82.6976 388.971 75.9789 398.678C75.5952 399.071 75.1169 399.216 74.6686 399.164C70.7892 399.363 67.358 399.614 63.9268 399.865C67.7544 393.672 71.2261 387.223 75.4743 381.334C90.1209 361.029 104.521 340.512 120.009 320.859C133.587 303.63 148.583 287.514 168.009 276.456C173.44 273.364 179.185 270.822 184.698 268.072C180.347 263.417 180.718 260.571 186.754 256.594C198.605 248.785 207.723 238.842 209.201 224.199C209.812 218.149 208.035 211.851 207.257 205.677C207.137 204.72 206.049 203.671 206.273 202.925C206.966 200.625 208.077 198.451 209.026 196.229C211.226 197.326 214.405 197.867 215.412 199.641C217.246 202.872 218.315 206.769 218.786 210.503C221.414 231.358 214.616 248.417 197.651 261.16C194.889 263.234 192.093 265.262 190.182 266.671C195.096 267.394 200.666 268.213 206.755 269.399C210.833 273.533 214.87 276.965 217.815 281.163C220.71 285.29 219.591 287.562 214.631 290.015C212.815 288.582 211.384 287.202 209.907 285.873C207.322 283.549 204.708 281.257 202.106 278.951Z" fill="#CAD9BA"/>
<path d="M358.946 361.108C357.594 359.462 355.832 357.997 355.002 356.121C354.104 354.093 353.108 351.135 353.97 349.604C354.687 348.331 358.032 348.537 360.694 348.5C367.677 356.311 374.179 363.711 380.821 371.432C394.267 388.923 395.815 407.106 385.631 426.284C383.765 429.798 381.821 433.272 379.643 436.975C375.375 442.881 371.179 448.447 367.418 454.294C355.351 473.054 354.852 493.858 357.034 515.089C357.764 532.965 358.148 550.886 363.911 568.106C364.383 569.517 364.962 570.909 365.645 572.229C368.513 577.772 367.499 582.068 362.432 585.759C354.583 591.477 345.267 592.62 336.096 593.868C329.872 594.715 323.524 594.7 317.227 594.95C314.076 595.075 311.208 593.904 311.347 590.39C311.473 587.173 313.557 585.246 317.274 584.947C326.833 584.179 336.364 583.057 345.897 581.992C347.361 581.828 348.812 581.316 350.207 580.799C356.225 578.57 355.816 578.117 354.521 571.664C351.93 558.753 350.106 545.687 348.031 532.675C347.563 529.741 347.359 526.765 347.004 523.385C346.982 513.481 346.899 503.999 347.02 494.52C347.224 478.641 350.097 463.441 359.271 449.298C366.173 438.368 373.335 428.31 379.087 417.501C385.56 405.334 384.187 392.856 376.145 381.708C370.925 374.472 364.713 367.95 358.946 361.108Z" fill="#CAD9BA"/>
<path d="M365.131 104.879C368.132 103.392 370.232 104.32 372.523 106.738C376.852 111.308 381.366 115.797 386.348 119.608C388.344 121.135 391.998 121.718 394.521 121.126C406.078 118.413 416.858 113.826 426.292 106.351C429.202 104.045 432.741 104.005 435.257 106.92C438.372 110.53 441.52 114.313 443.665 118.524C458.524 147.695 471.921 177.52 481.731 208.809C484.65 218.117 486.677 227.722 488.746 237.27C489.418 240.371 489.974 244.468 485.203 245.185C480.607 245.876 479.601 242.632 478.869 238.787C474.346 215.03 466.09 192.453 456.62 170.301C451.404 158.097 445.985 145.975 440.363 133.953C437.572 127.984 434.118 122.323 431.502 117.511C420.308 121.986 409.877 126.135 399.463 130.326C389.555 134.314 381.767 130.082 374.468 123.938C373.332 122.982 372.293 121.911 371.053 120.746C367.099 130.349 358.219 130.804 350.139 131.799C344.821 132.453 339.278 131.059 333.83 130.985C331.849 130.959 329.866 132.148 327.86 132.697C323.765 133.817 319.697 135.402 315.532 135.739C313.503 135.903 310.922 134.053 309.285 132.42C308.317 131.453 308.111 128.897 308.664 127.488C309.115 126.34 311.468 124.897 312.522 125.196C319.665 127.22 323.95 124.795 326.292 117.394C328.581 117.419 330.29 117.715 332.186 118.299C334.92 119.734 337.466 120.882 340.361 122.208C342.804 122.508 344.898 122.631 347.346 122.756C349.509 122.373 351.319 121.985 353.512 121.507C355.896 120.725 357.939 120.138 359.887 119.323C363.759 117.702 366.287 115.631 363.937 110.713C363.254 109.285 364.674 106.851 365.131 104.879Z" fill="#CAD9BA"/>
<path d="M359.87 94.1204C367.457 91.0635 375.154 90.236 383.606 93.3013C386.446 94.7626 388.707 95.9006 391.159 97.3062C393.57 99.0605 395.79 100.547 398.372 102.037C400.679 101.184 402.625 100.327 404.904 99.3828C407.535 97.8243 409.833 96.3539 412.131 94.8834C418.643 91.6289 425.36 88.7222 431.622 85.0423C442.345 78.7411 452.722 71.8536 463.377 65.4321C466.884 63.3186 468.672 60.6968 466.886 56.9402C463.141 49.0634 459.351 41.1734 454.944 33.6615C452.745 29.9137 448.57 28.8899 444.347 30.8166C436.351 34.4652 428.385 38.1859 420.482 42.0324C417.502 43.4831 414.633 43.4966 413.18 40.5814C412.429 39.0734 412.946 35.5187 414.146 34.6761C424.256 27.5744 435.08 21.8205 447.544 20.0431C452.901 19.2792 457.216 21.4023 460.867 25.3321C470.813 36.0363 477.333 48.2321 476.826 63.208C476.738 65.8017 475.171 69.3545 473.123 70.7172C451.289 85.2513 429.333 99.6368 405.055 109.935C402.475 111.029 399.698 111.661 397.007 112.489C393.117 113.685 390.243 112.319 388.034 109.031C382.963 101.48 373.725 99.2589 364.761 103.758C362.038 103.186 359.509 102.829 358.025 101.392C357.272 100.663 358.325 97.9686 358.723 96.1989C358.889 95.4575 359.475 94.8104 359.87 94.1204Z" fill="#CAD9BA"/>
<path d="M212.68 360.17C212.732 361.159 212.785 362.149 212.519 363.703C210.536 365.223 208.9 366.238 207.198 367.128C201.109 370.313 194.997 373.456 188.894 376.614C172.437 388.011 158.757 402.2 146.902 418.645C140.592 426.902 133.923 434.515 128.218 442.792C118.543 456.831 109.444 471.269 100.179 485.588C98.2934 488.502 96.1532 490.817 92.5523 488.855C88.925 486.88 89.4542 483.495 91.24 480.678C99.8409 467.111 108.152 453.321 117.486 440.269C127.29 426.559 138.14 413.596 149.108 399.976C160.141 389.803 170.598 379.962 181.381 370.01C186.803 366.861 191.898 363.823 197.342 360.718C199.399 360.019 201.117 359.412 202.813 358.748C206.379 357.354 209.838 356.589 212.68 360.17Z" fill="#CAD9BA"/>
<path d="M300.964 121.939C300.817 128.302 300.21 129.182 294.155 128.906C290.09 128.722 285.827 128.285 282.073 126.855C275.438 124.327 273.89 120.121 276.046 113.32C276.593 111.597 277.123 109.868 277.906 107.352C267.412 104.429 256.97 109.06 246.75 106.25C243.598 114.196 238.554 119.575 230.013 121.23C226.567 121.897 224.239 120.82 223.305 117.866C222.279 114.62 223.952 112.525 227.457 111.881C228.882 111.619 230.277 110.885 231.548 110.131C237.602 106.539 237.678 102.032 232.412 97.5374C228.783 94.4401 225.909 90.4757 222.507 87.0894C219.575 84.1702 216.416 81.4717 213.28 78.7659C210.523 76.3879 208.495 73.4745 210.84 70.1638C213.455 66.4737 217.076 68.3747 219.579 70.4827C223.894 74.1157 227.697 78.3505 231.78 82.2635C235.97 86.2782 239.847 90.7752 244.563 94.05C252.28 99.4084 261.274 96.4176 269.78 96.666C275.686 96.8385 282.603 95.2997 286.154 101.858C287.542 104.421 287.492 108.216 286.98 111.262C285.892 117.734 287.439 119.738 294.171 119.861C296.262 119.899 298.332 121.069 300.703 121.851C300.996 121.981 300.964 121.939 300.964 121.939Z" fill="#CAD9BA"/>
<path d="M330.834 687.98C320.255 688.327 310.107 689.242 300.004 688.884C275.687 688.024 252.44 682.354 230.453 671.767C227.478 670.334 225.425 668.473 226.095 664.849C226.713 661.507 230.032 660.56 234.089 662.003C246.883 666.551 259.512 671.833 272.633 675.126C293.097 680.26 314.017 680.484 334.911 677.211C335.076 677.185 335.241 677.163 335.406 677.138C341.066 676.279 344.359 677.643 344.761 681.013C345.167 684.416 342.396 686.441 336.672 687.047C334.864 687.239 333.08 687.656 330.834 687.98Z" fill="#CAD9BA"/>
<path d="M474.447 257.358C471.021 257.667 468.04 257.791 465.066 258.007C447.569 259.28 430.06 260.418 412.582 261.915C400.723 262.93 388.924 264.673 377.057 265.527C375.239 265.658 372.185 263.097 371.511 261.154C370.569 258.434 372.466 256.301 375.84 255.935C387.181 254.706 398.489 253.164 409.839 252.034C424.324 250.591 438.817 249.062 453.345 248.273C464.794 247.651 476.307 247.911 487.775 248.289C489.219 248.337 491.312 251.309 491.778 253.245C492.517 256.313 490.011 257 487.367 257.005C483.209 257.014 479.052 257.14 474.447 257.358Z" fill="#CAD9BA"/>
<path d="M215.485 254.992C223.717 264.871 231.505 274.787 239.392 284.624C241.149 286.816 243.251 288.732 245.482 290.929C253.933 297.733 262.096 304.384 270.6 311.128C278.231 315.63 285.862 318.211 295.133 315.308C298.96 313.761 302.289 313.027 303.701 317.079C305.038 320.914 302.291 322.813 299.066 324.003C297.672 324.518 296.258 324.981 294.403 325.548C287.772 325.114 281.591 324.599 275.137 323.9C268.573 320.223 262.281 316.729 255.99 313.235C249.6 307.449 243.209 301.662 236.543 295.669C227.771 285.044 219.275 274.626 210.455 264.132C208.043 256.852 208.891 255.301 215.485 254.992Z" fill="#CAD9BA"/>
<path d="M205.936 157.195C205.949 162.457 203.35 163.469 199.044 162.55C190.89 160.809 186.91 163.119 184.852 169.257C182.855 175.209 187.407 181.14 194.157 182.488C198.182 183.292 202.374 183.994 206.423 183.722C210.137 183.472 213.843 182.084 217.395 180.773C220.622 179.582 223.066 180.094 224.447 183.185C225.813 186.243 224.775 188.762 221.617 190.102C209.203 195.368 196.693 195.525 184.557 189.627C174.335 184.659 173.086 173.541 176.195 163.154C178.579 155.191 189.132 150.291 198.467 152.404C201.273 153.039 205.215 152.343 205.936 157.195Z" fill="#CAD9BA"/>
<path d="M398.611 16.6386C404.891 15.6456 407.313 16.7917 406.763 20.8275C406.51 22.6838 404.392 25.4124 402.7 25.7728C384.399 29.6711 367.565 36.6981 353.109 48.6914C349.089 52.0265 345.632 56.2712 346.855 62.3911C347.551 65.8735 345.448 68.1471 342.434 68.4521C339.357 68.7635 337.44 66.7053 336.987 63.2966C335.619 53.0116 340.458 45.4872 348.003 39.6448C362.896 28.113 379.631 20.3472 398.611 16.6386Z" fill="#CAD9BA"/>
<path d="M295.047 191.785C292.651 194.649 289.966 196.927 288.259 199.789C279.926 213.765 277.67 229.347 277.067 245.247C276.886 250.041 277.376 254.869 277.699 259.672C277.954 263.463 277.088 266.313 272.364 266.887C270.697 264.496 268.281 262.033 268.276 259.565C268.252 248.16 268.898 236.753 269.521 224.607C272.416 215.569 274.513 207.017 277.971 199.057C280.482 193.28 284.795 188.287 288.304 182.944C289.172 182.46 290.014 181.627 290.912 181.563C293.115 181.406 296.049 180.74 297.405 181.849C299.769 183.783 299.699 186.819 297.212 189.255C296.502 189.95 295.874 190.728 295.047 191.785Z" fill="#CAD9BA"/>
<path d="M280.922 576.945C290.782 578.913 299.099 583.686 305.049 590.7C308.2 594.414 307.773 601.241 308.625 606.715C308.713 607.28 306.523 608.787 305.361 608.819C303.727 608.864 301.993 608.09 300.458 607.345C299.92 607.084 299.706 605.895 299.576 605.093C297.347 591.302 286.109 588.313 275.315 586.284C265.297 584.401 254.875 584.666 244.63 583.992C241.343 583.776 238.108 583.502 238.046 579.028C238.002 575.764 239.646 573.85 242.887 574.07C255.431 574.921 267.963 575.945 280.922 576.945Z" fill="#CAD9BA"/>
<path d="M301.013 122.001C299.353 111.948 301.744 106.983 311.295 102.024C313.78 100.734 314.814 99.3094 315.383 96.5932C318.154 83.3541 327.144 75.5476 339.067 70.5569C341.844 69.3946 344.592 69.7872 345.648 72.9265C346.604 75.7677 346.128 78.4702 342.784 79.9253C335.79 82.9687 329.724 87.1669 326.808 94.5967C325.869 96.9906 325.604 99.6491 325.018 103.05C324.945 106.273 324.886 108.633 324.826 110.992C322.765 111.239 320.655 111.892 318.652 111.653C313.442 111.029 310.772 113.139 310.861 118.291C310.94 122.867 306.754 124.654 301.29 122.089C300.964 121.939 300.996 121.981 301.013 122.001Z" fill="#CAD9BA"/>
<path d="M317.998 259.113C314.882 259.479 311.559 259.284 308.704 260.348C304.978 261.737 303.665 259.583 302.751 257.122C301.587 253.99 303.443 251.75 306.389 251.258C312.094 250.307 317.88 249.822 323.642 249.233C325.452 249.049 327.292 249.153 329.581 249.039C342.883 250.566 355.08 253.911 365.664 261.82C368.507 263.944 371.276 266.159 368.85 269.93C366.403 273.734 362.915 272.204 360.094 270.358C353.375 265.961 346.576 261.896 337.633 260.812C330.595 260.11 324.296 259.611 317.998 259.113Z" fill="#CAD9BA"/>
<path d="M131.642 698.605C135.411 684.403 141.771 671.907 150.17 660.411C150.85 659.48 151.66 658.286 152.637 658.005C154.777 657.388 157.993 656.254 159.057 657.219C160.406 658.443 160.785 661.734 160.241 663.777C159.643 666.021 157.459 667.818 156.072 669.881C148.695 680.858 143.196 692.685 140.054 705.568C139.7 707.016 139.33 708.463 138.885 709.885C137.995 712.72 136.096 713.821 133.167 713.115C129.968 712.343 128.852 710.223 129.471 707.173C130.029 704.42 130.812 701.712 131.642 698.605Z" fill="#CAD9BA"/>
<path d="M297.828 636.931C293.033 637.197 292.176 634.263 292.036 630.83C291.873 626.848 292.134 622.83 291.71 618.881C290.761 610.02 282.807 606.61 277.386 601.285C275.285 599.221 272.546 597.821 270.202 595.986C267.702 594.029 267.144 591.195 269.257 589.071C270.554 587.767 273.986 586.726 275.215 587.512C284.146 593.225 293.15 599.203 298.634 608.563C303.076 616.142 302.194 624.915 301.714 633.334C301.643 634.586 299.448 635.718 297.828 636.931Z" fill="#CAD9BA"/>
<path d="M274.897 635.096C272.331 627.707 269.745 620.728 267.449 613.654C266.486 610.687 266.386 607.424 270.208 606.257C273.973 605.107 275.773 607.155 277.126 610.679C281.506 622.091 286.276 633.354 290.829 644.7C291.985 647.583 293.718 650.85 289.67 652.854C285.871 654.734 283.376 652.662 281.719 649.333C279.43 644.735 277.231 640.092 274.897 635.096Z" fill="#CAD9BA"/>
<path d="M312.999 161.987C313.201 169.344 310.682 174.867 304.2 177.736C302.519 178.481 298.791 178.182 298.268 177.181C297.334 175.39 297.169 171.562 298.347 170.577C304.946 165.057 303.242 159.201 300.503 152.645C298.622 148.143 296.734 143.334 299.085 138.246C300.721 134.705 303.514 132.943 307.096 134.418C310.276 135.728 309.908 138.521 308.938 141.613C308.333 143.54 309.174 146.012 309.661 148.173C310.67 152.652 311.875 157.087 312.999 161.987Z" fill="#CAD9BA"/>
<path d="M260.554 183.985C265.241 182.668 269.573 181.589 273.699 179.981C276.737 178.798 279.702 177.689 281.487 181.204C283.165 184.511 281.337 186.939 278.144 188.32C274.946 189.702 271.72 191.019 268.231 192.584C263.602 193.174 259.248 193.544 254.453 193.981C249.178 192.432 244.292 190.952 239.525 189.157C235.809 187.758 235.068 184.566 236.61 181.386C238.168 178.175 241.035 179.027 243.979 179.928C249.276 181.549 254.726 182.667 260.554 183.985Z" fill="#CAD9BA"/>
<path d="M133.313 186.529C138.562 194.405 146.105 198.278 154.436 200.986C155.695 201.395 157.391 201.451 158.109 202.316C159.343 203.803 160.759 205.879 160.585 207.551C160.454 208.813 157.686 211.016 156.565 210.757C150.69 209.397 144.284 208.457 139.367 205.323C133.554 201.617 128.781 196.073 124.196 190.773C122.878 189.25 123.285 185.689 123.91 183.33C124.127 182.508 127.591 181.809 129.192 182.298C130.754 182.775 131.83 184.841 133.313 186.529Z" fill="#CAD9BA"/>
<path d="M369 62.8053C369.337 56.3843 369.749 50.4353 369.983 44.4792C370.124 40.8742 371.288 37.837 375.315 38.2599C379.031 38.6501 380.25 41.7044 379.973 45.2981C379.518 51.2059 379.102 57.1168 378.657 63.2021C380.576 63.331 381.974 63.0082 382.726 63.5618C384.302 64.7212 386.478 66.2376 386.652 67.8024C386.83 69.4079 385.343 71.9663 383.842 72.8608C376.328 77.338 369.133 72.5665 369 62.8053Z" fill="#CAD9BA"/>
<path d="M401 45.0704C401 47.9261 401 50.3357 401 52.7452C401.473 53.0053 401.945 53.2654 402.418 53.5254C402.986 52.5768 403.408 50.9706 404.15 50.8064C406.154 50.3625 408.53 49.9565 410.289 50.678C411.315 51.0983 411.91 53.7224 411.883 55.3411C411.795 60.5299 406.354 64.9531 400.488 64.9413C395.137 64.9305 391.195 61.095 391.034 55.5499C390.915 51.4102 391.055 47.2636 390.99 43.1215C390.936 39.7554 391.718 37.1557 395.757 37.0403C400.014 36.9187 401.163 39.4542 400.998 43.1329C400.975 43.629 400.998 44.1271 401 45.0704Z" fill="#CAD9BA"/>
<path d="M339.067 694.393C341.437 693.188 343.894 691.387 345.91 691.791C349.039 692.419 348.23 695.449 348.359 698.223C348.637 704.233 350.104 710.187 351.047 716.17C351.377 718.258 352.123 720.483 351.684 722.42C351.375 723.781 349.514 725.449 348.107 725.715C346.739 725.973 344.221 725.036 343.662 723.906C339.129 714.729 336.516 705.135 339.067 694.393Z" fill="#CAD9BA"/>
<path d="M347.77 72.0464C351.822 68.553 354.659 70.4347 357.064 74.0373C358.612 72.1525 359.544 70.1008 361.083 69.4172C362.458 68.8062 365.207 69.088 366.084 70.087C367.293 71.4628 367.981 73.9819 367.71 75.839C366.977 80.868 360.315 84.9284 355.102 83.8067C349.54 82.6098 345.198 78.462 347.77 72.0464Z" fill="#CAD9BA"/>
<path d="M50.1895 440.094C48.9791 437.547 47.7686 435.001 46.3335 432.187C46.0739 430.561 46.0388 429.202 46.3674 427.289C50.4508 421.093 54.1707 415.45 57.9466 410.229C58.9515 414.425 59.9002 418.199 60.762 422.236C60.4731 423.017 60.2711 423.534 59.8619 424.32C56.4996 429.757 53.3446 434.926 50.1895 440.094Z" fill="#CAD9BA"/>
<path d="M60.8489 421.972C59.9001 418.199 58.9514 414.425 58.0454 409.904C59.3737 406.381 60.6592 403.607 61.9448 400.833C61.9448 400.833 62.02 400.942 62.1554 400.866C62.5824 400.662 62.7651 400.443 62.8391 400.133C63.0192 400.084 63.1994 400.035 63.6532 399.926C67.358 399.614 70.7892 399.363 74.5607 399.483C73.513 402.359 72.1249 404.864 70.4861 407.618C67.1065 412.569 63.9777 417.27 60.8489 421.972Z" fill="#CAD9BA"/>
<path d="M336.269 608.775C336.269 608.775 336.07 608.378 335.985 608.172C336.889 605.011 338.015 602.094 338.828 599.092C339.833 595.381 342.429 594.325 345.637 595.267C348.69 596.164 349.252 598.661 348.288 601.644C347.483 604.137 346.952 606.718 346.148 609.605C345.996 609.949 346.23 610.035 345.768 610.108C342.293 609.712 339.281 609.244 336.269 608.775Z" fill="#CAD9BA"/>
<path d="M339.091 670.061C339.109 673.05 338.459 675.489 334.978 675.897C331.177 676.342 330.353 673.424 329.178 670.447C329.024 670.13 328.852 670.009 329.363 669.988C332.958 669.903 336.041 669.84 339.124 669.776C339.124 669.776 339.211 670.016 339.091 670.061Z" fill="#CAD9BA"/>
<path d="M62.5972 400.156C62.765 400.443 62.5823 400.662 62.1008 400.904C61.9276 400.668 62.0757 400.389 62.5972 400.156Z" fill="#CAD9BA"/>
<path d="M186.109 509.078C186.092 509.208 186.158 509.513 186.5 509.766C186.493 509.672 186.298 509.518 186.109 509.078Z" fill="#CAD9BA"/>
<path d="M314.87 293.012C308.622 285.944 302.597 279.1 296.257 272.134C292.818 269.286 289.753 266.486 286.55 263.855C284.077 261.823 281.765 259.741 284.136 256.385C286.437 253.128 289.196 253.984 291.88 256.088C292.663 256.702 293.529 257.211 294.674 257.901C302.097 265.01 309.203 271.987 316.594 279.158C322.936 288.784 328.994 298.217 335.24 307.917C338.405 318.157 341.596 328.075 344.261 338.132C345.486 342.756 343.584 344.491 338.099 344.668C336.576 342.02 334.706 339.553 334.317 336.871C331.944 320.504 324.631 306.399 314.87 293.012Z" fill="#CAD9BA"/>
<path d="M294.997 441.919C298.404 440.256 301.746 438.438 305.241 436.986C307.406 436.087 309.803 435.744 312.499 435.231C315.806 440.106 315.518 441.173 310.056 445.205C301.867 449.65 293.854 453.7 284.254 454.382C275.245 454.647 267.139 452.68 259.346 448.166C253.419 441.966 247.803 435.817 242.307 429.562C241.357 428.48 240.288 426.9 240.386 425.638C240.546 423.591 241.236 420.269 242.411 419.929C244.171 419.418 247.033 420.487 248.538 421.858C250.527 423.671 251.656 426.425 253.551 429.29C259.403 436.851 265.828 442.46 275.373 444.174C282.473 445.992 288.828 444.693 294.997 441.919Z" fill="#CAD9BA"/>
<path d="M210.121 422.338C202.511 424.655 195.151 426.753 187.393 428.961C177 428.931 167.998 426.419 161.422 418.236C160.495 417.083 159.11 415.776 159.098 414.53C159.08 412.495 159.42 409.472 160.715 408.683C162.064 407.862 165.815 408.471 166.633 409.703C171.866 417.591 179.167 420.033 188.941 419.044C198.186 415.556 206.587 412.12 214.988 408.684C230.261 400.439 235.894 386.512 236.972 370.293C238.494 347.397 232.445 325.827 224.48 304.677C223.719 302.657 222.33 300.659 222.309 298.639C222.289 296.832 223.422 293.825 224.647 293.479C226.357 292.998 229.026 294.023 230.536 295.294C231.908 296.448 232.278 298.793 233.261 300.901C237.472 316.387 242.618 331.394 245.282 346.829C248.915 367.885 247.478 388.606 233.027 406.65C225.388 412.015 217.879 417.066 210.121 422.338Z" fill="#CAD9BA"/>
<path d="M339.077 669.362C336.041 669.84 332.958 669.903 329.423 669.901C327.523 649.301 330.51 629.292 336.183 609.184C339.281 609.244 342.293 609.712 345.726 610.225C345.4 613.172 344.654 616.074 343.887 619.349C338.898 635.801 336.207 652.103 339.077 669.362Z" fill="#CAD9BA"/>
</svg>
