<svg width="759" height="759" viewBox="0 0 759 759" fill="none" xmlns="http://www.w3.org/2000/svg">
<path d="M348.328 519.019C344.302 520.932 340.275 522.845 335.577 524.151C331.749 522.553 328.296 520.182 325.48 520.784C295.459 527.21 266.701 522.136 238.191 512.58C221.607 507.021 204.816 502.042 187.973 497.32C179.631 494.982 179.185 496.568 179.963 505.333C181.046 517.516 182.367 530.023 180.801 542.028C177.042 570.845 170.299 599.313 173.043 628.727C173.264 631.097 171.523 633.65 170.694 636.118C170.531 636.601 170.242 636.991 168.853 637.378C166.225 637.483 164.57 637.497 162.915 637.511C156.421 636.842 148.654 640.114 144.317 630.831C146.518 592.305 145.461 554.676 140.834 517.138C138.786 500.528 136.578 483.929 135.065 467.269C134.363 459.539 136.687 452.239 142.525 446.032C145.03 447.535 147.205 449.128 149.605 450.231C163.886 456.794 177.769 464.671 192.651 469.364C210.528 475.002 227.185 480.769 236.387 498.935C238.27 502.652 241.668 507.051 248.038 504.746C249.245 503.993 249.993 503.405 251.296 503.162C259.374 507.094 266.796 510.931 274.491 514.108C276.592 514.976 280.446 514.771 281.785 513.394C283.031 512.112 282.96 508.023 281.825 506.184C268.307 484.288 252.922 464.307 227.431 455.014C222.787 453.322 218.535 450.555 214.102 448.283C214.262 447.568 214.421 446.852 214.58 446.137C217.859 445.705 221.16 444.783 224.412 444.93C235.744 445.445 247.054 446.426 258.383 447.038C265.177 447.405 271.99 447.417 279.364 447.647C284.989 450.465 289.811 453.847 295.15 455.856C307.184 460.384 320.443 460.671 330.958 454.371C348.938 443.6 365.318 430.157 382.911 417.933C384.399 418.25 385.527 418.211 386.267 418.729C414.398 438.426 443.076 457.62 465.993 483.545C490.008 510.714 518.771 530.009 553.124 541.45C577.835 549.679 601.139 560.897 622.405 576.172C641.451 589.852 660.775 603.145 679.8 616.852C682.124 618.527 683.358 621.714 684.991 624.762C684.064 630.919 681.246 635.027 675.458 637.314C661.821 630.173 649.265 621.572 635.463 616.123C583.61 595.653 531.481 575.857 479.196 556.507C444.282 543.587 409.071 531.418 373.664 519.924C365.935 517.415 356.81 519.207 348.328 519.019Z" fill="#234035"/>
<path d="M348.51 519.542C356.81 519.207 365.935 517.415 373.664 519.924C409.07 531.418 444.282 543.587 479.196 556.508C531.481 575.857 583.609 595.653 635.463 616.123C649.264 621.572 661.821 630.173 675.649 637.79C686.191 645.983 691.557 656.327 694.642 668.268C695.147 670.221 698.38 672.172 700.702 672.777C703.71 673.561 707.214 673.59 710.241 672.857C714.04 671.935 719.906 670.644 720.674 668.193C721.835 664.492 720.225 659.21 718.27 655.376C712.087 643.257 700.442 636.04 691.041 626.815C689.596 625.397 687.104 625.045 685.097 624.2C683.358 621.714 682.124 618.527 679.8 616.852C660.775 603.145 641.45 589.852 622.405 576.172C601.138 560.897 577.835 549.679 553.124 541.45C518.771 530.009 490.008 510.714 465.992 483.546C443.075 457.62 414.398 438.426 386.266 418.729C385.527 418.211 384.399 418.25 382.872 417.432C376.538 410.438 369.79 404.674 365.223 397.518C353.4 378.995 348.938 357.954 346.729 335.771C341.783 318.035 337.063 300.833 331.855 283.781C331.056 281.165 328.002 279.239 325.991 276.994C317.374 261.466 309.924 245.121 299.796 230.65C290.522 217.398 278.096 206.391 267.53 193.993C255.155 179.474 238.861 170.601 222.796 161.203C203.996 150.206 185.501 138.689 166.774 127.565C160.49 123.833 153.848 120.706 147.462 117.138C138.762 112.277 129.363 108.243 121.668 102.096C106.918 90.3146 89.6607 85.3639 71.968 81.2386C66.8474 80.0447 61.3537 80.4512 55.2382 79.9118C53.9147 79.7882 53.3839 79.8769 52.8531 79.9656C53.4296 80.481 54.0062 80.9964 54.5827 81.5119C58.0717 83.4286 61.5268 85.4111 65.0656 87.2311C66.583 88.0115 68.5343 88.1209 69.8248 89.1288C71.7014 90.5945 73.1586 92.5971 74.7947 94.3708C72.3888 94.3868 69.7321 95.0825 67.6198 94.303C57.5635 90.5918 47.4963 86.8176 37.8087 82.2661C35.457 81.1612 34.529 77.0258 32.9463 74.2839C35.4381 73.2465 37.9737 71.2159 40.4151 71.3234C69.0723 72.5857 96.1107 79.7856 121.32 93.7422C135.165 101.407 149.434 108.311 163.238 116.047C174.85 122.554 186.139 129.652 197.44 136.697C214.643 147.423 231.845 158.157 248.813 169.248C255.142 173.385 261.221 178.098 266.704 183.297C284.905 200.556 303.948 217.017 315.883 239.9C324.327 256.09 334.976 271.167 342.904 287.58C353.247 308.993 356.755 332.547 360.12 355.887C362.777 374.315 368.547 391.391 381.953 404.537C389.676 412.11 399.344 417.687 408.059 424.264C418.291 431.986 428.602 439.616 438.562 447.678C444.544 452.519 450.023 458.004 455.544 463.388C463.019 470.677 469.942 478.576 477.767 485.457C498.028 503.272 518.146 521.226 544.719 529.836C557.456 533.963 569.887 539.403 581.857 545.439C597.676 553.416 613.341 561.884 628.235 571.446C637.944 577.68 645.656 586.966 655.171 593.577C668.905 603.118 683.527 611.371 697.614 620.417C700.43 622.226 702.68 625.006 704.954 627.551C712.66 636.173 722.418 643.212 726.233 654.872C726.844 656.74 727.628 658.552 728.206 660.429C731.759 671.971 730.039 675.715 718.717 679.062C713.601 680.574 708.145 681.796 702.863 681.721C689.588 681.533 686.133 678.076 686.508 665.108C686.764 656.214 680.527 652.002 675.01 647.729C650.336 628.617 621.003 618.92 592.394 607.814C544.511 589.226 496.74 570.343 448.715 552.13C417.308 540.22 385.984 527.796 352.363 523.068C351.025 522.88 349.911 521.102 348.51 519.542Z" fill="#393227"/>
<path d="M325.349 277.092C328.002 279.239 331.056 281.165 331.855 283.781C337.064 300.833 341.783 318.035 346.21 336.004C344.825 338.634 343.892 340.447 342.959 342.26C334.582 344.242 326.781 347.486 319.252 351.273C313.152 354.34 307.618 358.592 301.407 361.363C292.5 365.337 284.361 370.21 276.505 376.049C270.149 380.774 262.346 383.55 254.66 387.113C252.199 385.516 250.124 384.143 248.348 382.456C234.107 368.925 219.922 355.335 206.044 342.074C206.044 339.6 206.044 337.319 206.108 334.344C206.044 318.629 207.166 303.485 201.828 288.494C203.674 286.47 205.521 284.92 207.368 283.371C209.982 297.151 214.381 310.183 227.099 317.879C236.123 323.34 245.074 319.362 252.441 313.91C259.948 308.355 266.892 301.732 272.839 294.548C274.841 292.129 274.469 285.737 272.678 282.584C268.227 274.753 262.252 267.798 257.101 260.344C256.238 259.096 256.438 257.113 255.792 254.695C257.766 252.276 260.094 250.631 262.422 248.987C267.09 255.686 275.246 258.11 280.746 263.158C293.638 274.993 309.389 274.741 325.349 277.092Z" fill="#234035"/>
<path d="M207.587 282.858C205.521 284.92 203.674 286.47 201.433 288.657C198.273 290.815 195.464 292.263 192.748 293.867C178.494 302.286 169.832 314.692 164.916 330.492C157.036 355.816 146.078 380.402 140.579 406.186C135.473 430.124 137.496 437.368 157.361 447.276C173.165 455.158 189.639 461.766 206.062 468.319C219.7 473.76 233.626 478.362 238.895 494.256C239.335 495.584 240.523 496.665 241.742 498.4C247.663 490.626 251.904 496.212 256.473 498.745C261.434 501.496 266.38 504.272 272.771 507.84C272.483 504.318 272.755 502.965 272.242 502.055C261.081 482.239 244.06 468.989 223.977 459.19C213.442 454.05 202.533 449.523 192.524 443.503C182.349 437.383 173.117 429.704 163.374 422.848C160.59 420.888 157.465 419.413 154.496 417.715C154.6 417.111 154.704 416.507 154.808 415.902C163.559 415.415 166.891 410.255 169.909 402.72C178.208 381.999 187.659 361.723 197.209 341.534C198.585 338.626 203.023 337.167 206.044 335.037C206.044 337.319 206.044 339.6 206.044 342.074C219.921 355.335 234.106 368.925 248.348 382.456C250.124 384.143 252.199 385.516 254.848 387.569C257.01 390.653 258.459 393.203 259.91 395.752C269.138 411.962 278.081 428.276 278.795 447.588C271.99 447.417 265.177 447.406 258.382 447.038C247.054 446.426 235.744 445.445 224.411 444.931C221.159 444.783 217.859 445.705 214.58 446.137C214.421 446.852 214.261 447.568 214.102 448.283C218.535 450.555 222.787 453.322 227.431 455.015C252.921 464.307 268.307 484.288 281.825 506.184C282.96 508.023 283.031 512.113 281.785 513.394C280.446 514.771 276.592 514.977 274.49 514.109C266.796 510.931 259.374 507.095 251.004 503.134C249.298 503.478 248.439 504.195 247.579 504.912C241.668 507.051 238.27 502.652 236.387 498.935C227.185 480.769 210.528 475.002 192.65 469.364C177.769 464.672 163.886 456.794 149.605 450.231C147.205 449.128 145.03 447.535 142.525 446.033C136.686 452.239 134.363 459.539 135.064 467.269C136.577 483.929 138.786 500.529 140.833 517.138C145.46 554.676 146.518 592.305 143.887 630.695C144.244 642.22 135.526 647.472 128.746 652.536C119.225 659.645 108.103 664.703 97.3789 670.064C92.6486 672.428 87.1286 673.161 82.1325 675.068C79.6325 676.023 77.5769 678.084 75.1806 679.388C73.7067 680.19 71.9688 680.507 70.3495 681.042C70.342 678.914 69.445 675.792 70.4985 674.849C73.3454 672.3 76.9626 670.568 80.3799 668.707C95.4011 660.524 110.46 652.41 126.068 643.673C126.908 642.637 127.185 642.199 127.461 641.761C134.208 636.728 137.848 629.808 137.773 621.591C137.543 596.479 137.801 571.307 136.063 546.284C134.591 525.081 129.98 504.112 127.962 482.926C126.721 469.896 125.326 456.372 133.378 444.271C134.815 442.111 135.249 438.338 134.484 435.814C130.003 421.037 131.441 406.427 136.412 392.382C145.968 365.382 155.478 338.288 166.987 312.102C170.829 303.36 180.704 297.265 187.84 289.977C190.146 287.622 192.51 285.323 195.471 282.675C196.475 282.399 196.856 282.447 197.237 282.494C208.024 275.423 208.024 275.423 200.867 254.772C212.497 258.101 215.813 271.45 207.587 282.858ZM175.057 422.853C180.177 426.453 184.957 430.751 190.512 433.454C195.866 436.058 201.931 437.758 207.85 438.47C213.081 439.1 218.571 437.234 223.896 437.499C239.579 438.278 255.237 439.568 272.606 440.777C266.4 426.114 261.379 412.805 255.109 400.113C252.402 394.631 247.494 390.011 242.888 385.755C238.326 381.54 232.452 378.737 227.941 374.479C222.47 369.317 218.164 362.92 212.695 357.756C209.479 354.719 205.155 352.436 200.926 351.224C200.015 350.963 197.297 356.726 195.549 359.792C194.704 361.273 194.224 362.958 193.499 364.514C186.174 380.251 178.726 395.931 171.572 411.745C169.84 415.571 168.689 419.915 175.057 422.853Z" fill="#393227"/>
<path d="M171.229 636.219C171.523 633.65 173.263 631.097 173.042 628.728C170.298 599.313 177.042 570.845 180.801 542.028C182.367 530.023 181.045 517.516 179.963 505.333C179.184 496.568 179.631 494.982 187.972 497.32C204.815 502.042 221.607 507.022 238.19 512.58C266.701 522.136 295.459 527.21 325.48 520.785C328.296 520.182 331.748 522.553 335.04 524.111C326.536 526.68 317.993 529.624 309.24 530.516C277.712 533.727 248.464 524.427 219.659 513.051C210.186 509.31 200.483 506.151 189.73 502.313C189.73 507.339 190.003 510.537 189.685 513.675C187.562 534.632 184.839 555.541 183.262 576.536C182.11 591.883 182.254 607.337 182.108 622.746C181.967 637.675 182.3 652.608 182.154 667.536C182.131 669.96 180.704 672.37 179.927 674.786C179.286 674.696 178.645 674.605 178.004 674.515C176.983 664.899 176.139 655.26 174.844 645.681C174.411 642.481 172.824 639.436 171.229 636.219Z" fill="#393227"/>
<path d="M262.407 248.36C260.094 250.631 257.766 252.275 255.309 254.376C245.592 251.288 237.015 242.062 234.071 232.246C230.631 232.246 227.194 232.584 223.923 231.995C223.16 231.858 222.045 227.403 222.651 226.93C226.9 223.609 231.264 220.142 236.151 218C244.015 214.553 246.265 205.638 239.445 200.433C233.984 196.264 229.21 192.157 227.981 184.953C227.804 183.915 225.639 182.907 224.212 182.443C217.634 180.303 210.532 179.261 204.468 176.163C191.683 169.629 168.118 175.947 158.833 184.564C155.657 187.512 151.447 189.347 148.446 192.422C148.63 188.238 151.417 180.56 156.614 176.861C161.872 173.118 167.572 169.996 173.491 166.348C164.555 159.269 156.472 153.265 148.854 146.72C141.148 140.101 133.873 132.975 126.463 126.015C119.525 119.499 109.985 115.588 104.971 107.14C105.796 106.166 106.621 105.191 107.446 104.216C117.63 111.806 127.873 119.317 137.975 127.014C144.173 131.736 150.078 136.843 156.251 141.6C164.637 148.063 173.1 154.431 181.65 160.674C184.154 162.502 186.977 163.971 189.812 165.256C197.464 168.723 205.132 172.173 212.935 175.276C216.267 176.602 219.913 177.527 223.479 177.793C230.94 178.348 231.583 178.658 233.205 187.008C233.921 185.53 234.334 184.676 234.486 184.362C237.446 188.004 240.829 191.652 243.614 195.709C248.399 202.68 251.463 210.058 245.675 219.086C238.008 228.101 242.447 240.672 255.087 244.475C254.262 241.199 253.86 238.54 252.92 236.087C250.758 230.449 248.334 224.91 246.017 219.331C248.356 219.601 252.363 219.21 252.772 220.243C256.344 229.262 259.272 238.535 262.407 248.36Z" fill="#393227"/>
<path d="M152.219 677.606C158.01 678.147 163.19 678.278 168.194 679.288C170.059 679.665 171.51 682.095 173.15 683.589C171.688 684.503 170.275 686.121 168.758 686.226C145.042 687.868 121.321 689.501 97.5779 690.644C92.9899 690.865 88.301 688.991 83.6587 688.084C83.7258 687.383 83.793 686.683 83.8601 685.983C106.42 683.17 128.98 680.357 152.219 677.606Z" fill="#393227"/>
<path d="M185.352 217.685C183.525 220.512 182.031 223.071 179.933 224.96C175.606 228.857 175.526 231.874 180.987 234.022C185.182 235.671 190.001 235.733 194.616 236.514C194.653 236.77 194.919 237.507 194.753 237.622C189.21 241.471 176.584 240.583 173.094 235.789C169.598 230.987 168.855 225.732 173.419 221.077C178.208 216.191 176.596 210.936 175.044 205.487C173.576 200.332 172.326 195.115 170.478 187.99C181.329 195.163 187.622 208.897 185.352 217.685Z" fill="#393227"/>
<path d="M150.024 235.307C148.281 235.496 146.927 235.863 145.852 235.468C140.629 233.548 135.641 234.544 134.772 239.999C134.237 243.359 136.725 248.589 139.557 250.828C147.076 256.773 155.519 261.551 163.594 266.793C163.421 267.45 163.248 268.107 163.074 268.764C157.049 266.73 150.804 265.168 145.072 262.502C141.019 260.616 137.617 257.293 134.003 254.51C127.35 249.384 124.668 239.873 129.453 233.167C131.74 229.961 137.153 227.646 141.253 227.481C144.749 227.34 148.392 230.853 151.971 232.749C151.494 233.544 151.018 234.339 150.024 235.307Z" fill="#393227"/>
<path d="M172.561 256.453C179.436 256.174 185.66 255.884 192.171 255.58C187.718 263.386 174.568 266.23 164.405 262.033C155.325 258.285 144.842 243.879 147.015 236.775C155.57 243.361 159.918 255.046 172.561 256.453Z" fill="#393227"/>
<path d="M125.756 218.015C123.871 220.312 120.917 222.378 120.36 224.961C119.596 228.504 120.65 232.439 120.965 236.752C112.766 231.807 114.308 224.914 116.297 218.47C118.457 211.469 121.379 204.68 124.298 197.941C127.673 190.15 133.986 192.903 140.169 194.028C127.101 197.122 127.922 207.415 127.098 217.457C126.416 217.938 126.086 217.977 125.756 218.015Z" fill="#393227"/>
<path d="M64.479 97.7216C65.7802 97.0078 67.1364 96.3075 68.091 96.6687C77.8519 100.362 87.2614 105.312 98.2385 104.306C98.8438 104.251 99.566 105.471 100.287 106.148C90.7044 112.829 73.2663 108.862 64.479 97.7216Z" fill="#393227"/>
<path d="M125.833 218.592C126.086 217.977 126.417 217.938 127.242 217.838C132.233 211.302 135.951 203.75 147.396 204.869C139.857 213.415 132.926 221.27 124.887 230.382C125.348 225.327 125.629 222.248 125.833 218.592Z" fill="#393227"/>
<path d="M163.166 637.987C164.57 637.497 166.225 637.484 168.5 637.485C167.219 637.821 165.318 638.142 163.166 637.987Z" fill="#234035"/>
<path d="M54.6824 81.1697C54.0066 80.9964 53.43 80.481 52.8535 79.9656C53.3843 79.8769 53.9151 79.7882 54.6922 79.916C54.9384 80.1325 54.7816 80.8275 54.6824 81.1697Z" fill="#393227"/>
<path d="M197.069 282.306C196.856 282.447 196.475 282.399 195.569 282.128C195.663 281.976 196.282 282.047 197.069 282.306Z" fill="#393227"/>
<path d="M248.038 504.746C248.439 504.195 249.299 503.478 250.45 502.79C249.993 503.405 249.245 503.993 248.038 504.746Z" fill="#393227"/>
</svg>
