<?xml version="1.0" encoding="UTF-8"?>
<!DOCTYPE svg PUBLIC "-//W3C//DTD SVG 1.1//EN" "http://www.w3.org/Graphics/SVG/1.1/DTD/svg11.dtd">
<!-- Creator: CorelDRAW -->
<svg xmlns="http://www.w3.org/2000/svg" xml:space="preserve" width="79.4034mm" height="79.3483mm" version="1.1" shape-rendering="geometricPrecision" text-rendering="geometricPrecision" image-rendering="optimizeQuality" fill-rule="evenodd" clip-rule="evenodd"
viewBox="0 0 17612.93 17600.71"
 xmlns:xlink="http://www.w3.org/1999/xlink"
 xmlns:xodm="http://www.corel.com/coreldraw/odm/2003">
 <g id="Layer_x0020_1">
  <metadata id="CorelCorpID_0Corel-Layer"/>
  <path fill="#F8DCB3" d="M6839.47 12741.52l0.51 -2394.95 1063.83 -49.6 1.38 2559.04c43.45,273.52 -11,169.38 212.61,182.82 154.49,-300.32 56.7,-2337.45 59.78,-2842.24 489.55,-166.65 531.91,-218.07 1106.57,-37.4 115.12,479.63 -7.48,2460.29 31.19,2696.15 46.43,283.24 -11.93,170.91 210.99,187.37 192.87,-322.61 71.54,-2289.65 75.04,-2818.39l1069.75 14.77 2.77 2443.72c-0.2,1215.44 -1011.32,1075.19 -1147.56,1236.36 -85.4,101.04 -46.74,2975.59 -49.35,3386.95 -407.94,30.23 -1064.01,61.98 -1439.43,-26.48l-15.97 -3386.06c-685.88,-164.54 -1179.77,-331.93 -1182.1,-1152.07zm-2761.98 -6909.52c2319.57,-799.96 3530.69,-23.2 4160.31,387.18 218.89,135.29 628.49,683.77 849.42,929.76 166.78,382.17 735.12,1269.05 618.84,1664.13 -348.45,-166.16 -163.97,-70.6 -516.5,-187.32 -444.12,-147.02 -3441.89,-1543.31 -3863.72,-1493.49 68.16,686.81 3283.67,1512.52 4279.49,1947.37 -168.49,439.77 -1626.84,888.64 -2257.66,905.41 -341.57,101.55 -1302.15,-165.59 -1546.88,-322.65 -318.02,-204.14 -533.2,-455.37 -813.49,-710.88 -195.53,-178.23 -1066.22,-1628.93 -1100.12,-1720.23 -203.72,-595.89 -344.95,-862.49 -367.33,-1086.39 -7.5,-74.93 333.66,-192.05 557.62,-312.89zm5977.03 2568.25c-160.86,-84.42 -116.1,-106.43 -196.71,-332.63l-274.54 -643.98c-74.42,-285.08 445.63,-924.22 684.48,-1025.34 1317.5,-1167.62 3370.67,-934.4 4234.35,-790.46 -8.25,437.86 -356.81,1486.48 -559.95,1861.83l-472.02 821.87c-60.53,90.08 -240.71,355.53 -274.28,382.85 -606.84,494.38 -1595.85,1336.42 -2432.41,1253.26 -438.29,0.22 -962.57,160.02 -1593.75,-128.63 298.5,-304.51 879.57,-410.87 883.03,-1111.05 518.94,-297.61 1413.88,-742.37 1948.81,-1219.72 153.7,-137.15 154.58,-32.9 97.16,-348.1 -229.73,37.97 -1996.54,1146.5 -2044.17,1280.1zm-6873.96 -2478.92c19.03,771.65 840.48,2192.09 1187.38,2704.44 500.9,739.84 1103.89,1328.14 2210.28,1661.87 12.49,1112.61 -217.11,2823.52 344.81,3413.59 324.72,341 509.56,237.12 823.51,448.82l6.5 3093.47c-946.18,-5.61 -2394.39,-609.51 -3092.27,-987.04 -2726.8,-1475.12 -4586.66,-4598.17 -4364.45,-8034.97 283.95,-4391.27 3957.66,-7981.24 8584.43,-7942.51 7290.09,61.02 11126.59,8632.6 6336.48,14163.47 -1001.01,1155.82 -3164.54,2676.61 -5455.03,2827.38l-1.04 -3119.82c327.38,-200.65 1123.01,-221.33 1180.39,-1405.78 36.78,-759.01 -78.1,-1856.22 24.69,-2552.01 1462.21,-349.07 1951.58,-739.98 2657.06,-1629.17 446.12,-562.26 1232.52,-2188.19 1182.52,-3162.52 -1347.09,-357.15 -3394.62,-269.11 -4577.68,648.32 -718.02,556.78 -662.87,737.32 -926.13,932.45 -542.56,-830.15 -1299.13,-1568.39 -2548.26,-1785.57 -1440.87,-250.52 -2498.78,323.27 -3573.21,725.58zm-3148.23 3592.31c393.26,4591.7 4359.32,8456.35 9475.88,8058.9 4572.07,-355.15 8462.18,-4341.2 8078.55,-9430.88 -347.61,-4611.88 -4382.48,-8536.49 -9456.76,-8109.83 -4884.65,410.74 -8512.51,4638.43 -8097.67,9481.8z"/>
  <circle fill="#F8DCB3" cx="3997.7" cy="6875.85" r="81.1"/>
  <circle fill="#F8DCB3" cx="3730.01" cy="6719.18" r="81.1"/>
  <circle fill="#F8DCB3" cx="3865.65" cy="6440.22" r="81.1"/>
  <circle fill="#F8DCB3" cx="4145.74" cy="6604.5" r="81.1"/>
  <circle fill="#F8DCB3" cx="4537.86" cy="7182.82" r="81.1"/>
  <circle fill="#F8DCB3" cx="4270.18" cy="7026.15" r="81.1"/>
  <circle fill="#F8DCB3" cx="4405.82" cy="6747.19" r="81.1"/>
  <circle fill="#F8DCB3" cx="4685.9" cy="6911.47" r="81.1"/>
  <circle fill="#F8DCB3" cx="4289.14" cy="6341.8" r="81.1"/>
  <circle fill="#F8DCB3" cx="4021.45" cy="6185.13" r="81.1"/>
  <circle fill="#F8DCB3" cx="4157.09" cy="5906.18" r="81.1"/>
  <circle fill="#F8DCB3" cx="4437.18" cy="6070.46" r="81.1"/>
  <circle fill="#F8DCB3" cx="4829.31" cy="6648.77" r="81.1"/>
  <circle fill="#F8DCB3" cx="4561.62" cy="6492.1" r="81.1"/>
  <circle fill="#F8DCB3" cx="4697.26" cy="6213.15" r="81.1"/>
  <circle fill="#F8DCB3" cx="4977.35" cy="6377.43" r="81.1"/>
  <circle fill="#F8DCB3" cx="5098.5" cy="7459.18" r="81.1"/>
  <circle fill="#F8DCB3" cx="4830.82" cy="7302.51" r="81.1"/>
  <circle fill="#F8DCB3" cx="4966.46" cy="7023.55" r="81.1"/>
  <circle fill="#F8DCB3" cx="5246.54" cy="7187.83" r="81.1"/>
  <circle fill="#F8DCB3" cx="5638.67" cy="7766.15" r="81.1"/>
  <circle fill="#F8DCB3" cx="5370.98" cy="7609.48" r="81.1"/>
  <circle fill="#F8DCB3" cx="5506.62" cy="7330.52" r="81.1"/>
  <circle fill="#F8DCB3" cx="5786.71" cy="7494.8" r="81.1"/>
  <circle fill="#F8DCB3" cx="5389.95" cy="6925.13" r="81.1"/>
  <circle fill="#F8DCB3" cx="5122.26" cy="6768.46" r="81.1"/>
  <circle fill="#F8DCB3" cx="5257.9" cy="6489.51" r="81.1"/>
  <circle fill="#F8DCB3" cx="5537.99" cy="6653.79" r="81.1"/>
  <circle fill="#F8DCB3" cx="5930.11" cy="7232.1" r="81.1"/>
  <circle fill="#F8DCB3" cx="5662.42" cy="7075.44" r="81.1"/>
  <circle fill="#F8DCB3" cx="5798.07" cy="6796.48" r="81.1"/>
  <circle fill="#F8DCB3" cx="6078.15" cy="6960.76" r="81.1"/>
  <circle fill="#F8DCB3" cx="6175.13" cy="8041.98" r="81.1"/>
  <circle fill="#F8DCB3" cx="5907.44" cy="7885.31" r="81.1"/>
  <circle fill="#F8DCB3" cx="6043.08" cy="7606.35" r="81.1"/>
  <circle fill="#F8DCB3" cx="6323.17" cy="7770.63" r="81.1"/>
  <circle fill="#F8DCB3" cx="6715.3" cy="8348.95" r="81.1"/>
  <circle fill="#F8DCB3" cx="6447.61" cy="8192.28" r="81.1"/>
  <circle fill="#F8DCB3" cx="6583.25" cy="7913.32" r="81.1"/>
  <circle fill="#F8DCB3" cx="6863.34" cy="8077.6" r="81.1"/>
  <circle fill="#F8DCB3" cx="6466.57" cy="7507.93" r="81.1"/>
  <circle fill="#F8DCB3" cx="6198.89" cy="7351.26" r="81.1"/>
  <circle fill="#F8DCB3" cx="6334.53" cy="7072.31" r="81.1"/>
  <circle fill="#F8DCB3" cx="6614.61" cy="7236.59" r="81.1"/>
  <circle fill="#F8DCB3" cx="7006.74" cy="7814.9" r="81.1"/>
  <circle fill="#F8DCB3" cx="6739.05" cy="7658.23" r="81.1"/>
  <circle fill="#F8DCB3" cx="6874.69" cy="7379.28" r="81.1"/>
  <circle fill="#F8DCB3" cx="7154.78" cy="7543.56" r="81.1"/>
  <circle fill="#F8DCB3" cx="7275.94" cy="8625.31" r="81.1"/>
  <circle fill="#F8DCB3" cx="7008.25" cy="8468.64" r="81.1"/>
  <circle fill="#F8DCB3" cx="7143.89" cy="8189.68" r="81.1"/>
  <circle fill="#F8DCB3" cx="7423.98" cy="8353.96" r="81.1"/>
  <circle fill="#F8DCB3" cx="7816.1" cy="8932.28" r="81.1"/>
  <circle fill="#F8DCB3" cx="7548.41" cy="8775.61" r="81.1"/>
  <circle fill="#F8DCB3" cx="7684.05" cy="8496.65" r="81.1"/>
  <circle fill="#F8DCB3" cx="7964.14" cy="8660.93" r="81.1"/>
  <circle fill="#F8DCB3" cx="7567.38" cy="8091.26" r="81.1"/>
  <circle fill="#F8DCB3" cx="7299.69" cy="7934.59" r="81.1"/>
  <circle fill="#F8DCB3" cx="7435.33" cy="7655.64" r="81.1"/>
  <circle fill="#F8DCB3" cx="7715.42" cy="7819.92" r="81.1"/>
  <circle fill="#F8DCB3" cx="8107.54" cy="8398.23" r="81.1"/>
  <circle fill="#F8DCB3" cx="7839.86" cy="8241.57" r="81.1"/>
  <circle fill="#F8DCB3" cx="7975.5" cy="7962.61" r="81.1"/>
  <circle fill="#F8DCB3" cx="8255.58" cy="8126.89" r="81.1"/>
  <circle fill="#F8DCB3" cx="8356.71" cy="9200.83" r="81.1"/>
  <circle fill="#F8DCB3" cx="8089.02" cy="9044.16" r="81.1"/>
  <circle fill="#F8DCB3" cx="8224.66" cy="8765.21" r="81.1"/>
  <circle fill="#F8DCB3" cx="8504.75" cy="8929.48" r="81.1"/>
  <circle fill="#F8DCB3" cx="8896.88" cy="9507.8" r="81.1"/>
  <circle fill="#F8DCB3" cx="8629.19" cy="9351.13" r="81.1"/>
  <circle fill="#F8DCB3" cx="8764.83" cy="9072.18" r="81.1"/>
  <circle fill="#F8DCB3" cx="9044.92" cy="9236.45" r="81.1"/>
  <circle fill="#F8DCB3" cx="8648.15" cy="8666.79" r="81.1"/>
  <circle fill="#F8DCB3" cx="8380.47" cy="8510.12" r="81.1"/>
  <circle fill="#F8DCB3" cx="8516.11" cy="8231.16" r="81.1"/>
  <circle fill="#F8DCB3" cx="8796.19" cy="8395.44" r="81.1"/>
  <circle fill="#F8DCB3" cx="9188.32" cy="8973.76" r="81.1"/>
  <circle fill="#F8DCB3" cx="8920.63" cy="8817.09" r="81.1"/>
  <circle fill="#F8DCB3" cx="9056.27" cy="8538.13" r="81.1"/>
  <circle fill="#F8DCB3" cx="9336.36" cy="8702.41" r="81.1"/>
  <circle fill="#F8DCB3" cx="9457.52" cy="9784.16" r="81.1"/>
  <circle fill="#F8DCB3" cx="9189.83" cy="9627.49" r="81.1"/>
  <circle fill="#F8DCB3" cx="9325.47" cy="9348.54" r="81.1"/>
  <circle fill="#F8DCB3" cx="9605.56" cy="9512.81" r="81.1"/>
  <circle fill="#F8DCB3" cx="9997.68" cy="10091.13" r="81.1"/>
  <circle fill="#F8DCB3" cx="9729.99" cy="9934.46" r="81.1"/>
  <circle fill="#F8DCB3" cx="9865.63" cy="9655.51" r="81.1"/>
  <circle fill="#F8DCB3" cx="10145.72" cy="9819.79" r="81.1"/>
  <circle fill="#F8DCB3" cx="9748.96" cy="9250.12" r="81.1"/>
  <circle fill="#F8DCB3" cx="9481.27" cy="9093.45" r="81.1"/>
  <circle fill="#F8DCB3" cx="9616.91" cy="8814.49" r="81.1"/>
  <circle fill="#F8DCB3" cx="9897" cy="8978.77" r="81.1"/>
  <circle fill="#F8DCB3" cx="10289.13" cy="9557.09" r="81.1"/>
  <circle fill="#F8DCB3" cx="10021.44" cy="9400.42" r="81.1"/>
  <circle fill="#F8DCB3" cx="10157.08" cy="9121.46" r="81.1"/>
  <circle fill="#F8DCB3" cx="10437.17" cy="9285.74" r="81.1"/>
  <circle fill="#F8DCB3" cx="10402.1" cy="9931.34" r="81.1"/>
  <circle fill="#F8DCB3" cx="10682.18" cy="10095.61" r="81.1"/>
  <circle fill="#F8DCB3" cx="10825.59" cy="9832.92" r="81.1"/>
  <circle fill="#F8DCB3" cx="10557.9" cy="9676.25" r="81.1"/>
  <circle fill="#F8DCB3" cx="10693.54" cy="9397.29" r="81.1"/>
  <circle fill="#F8DCB3" cx="10973.63" cy="9561.57" r="81.1"/>
  <circle fill="#F8DCB3" cx="11098.07" cy="9983.22" r="81.1"/>
  <circle fill="#F8DCB3" cx="11233.71" cy="9704.26" r="81.1"/>
  <circle fill="#F8DCB3" cx="11513.79" cy="9868.54" r="81.1"/>
  <circle fill="#F8DCB3" cx="4863.8" cy="5901.21" r="81.1"/>
  <circle fill="#F8DCB3" cx="4596.11" cy="5744.54" r="81.1"/>
  <circle fill="#F8DCB3" cx="4731.75" cy="5465.59" r="81.1"/>
  <circle fill="#F8DCB3" cx="5011.84" cy="5629.86" r="81.1"/>
  <circle fill="#F8DCB3" cx="5403.97" cy="6208.18" r="81.1"/>
  <circle fill="#F8DCB3" cx="5136.28" cy="6051.51" r="81.1"/>
  <circle fill="#F8DCB3" cx="5271.92" cy="5772.56" r="81.1"/>
  <circle fill="#F8DCB3" cx="5552" cy="5936.83" r="81.1"/>
  <circle fill="#F8DCB3" cx="5155.24" cy="5367.17" r="81.1"/>
  <circle fill="#F8DCB3" cx="5695.41" cy="5674.14" r="81.1"/>
  <circle fill="#F8DCB3" cx="5427.72" cy="5517.47" r="81.1"/>
  <circle fill="#F8DCB3" cx="5843.45" cy="5402.79" r="81.1"/>
  <circle fill="#F8DCB3" cx="5964.6" cy="6484.54" r="81.1"/>
  <circle fill="#F8DCB3" cx="5696.92" cy="6327.87" r="81.1"/>
  <circle fill="#F8DCB3" cx="5832.56" cy="6048.92" r="81.1"/>
  <circle fill="#F8DCB3" cx="6112.64" cy="6213.19" r="81.1"/>
  <circle fill="#F8DCB3" cx="6504.77" cy="6791.51" r="81.1"/>
  <circle fill="#F8DCB3" cx="6237.08" cy="6634.84" r="81.1"/>
  <circle fill="#F8DCB3" cx="6372.72" cy="6355.89" r="81.1"/>
  <circle fill="#F8DCB3" cx="6652.81" cy="6520.16" r="81.1"/>
  <circle fill="#F8DCB3" cx="6256.05" cy="5950.5" r="81.1"/>
  <circle fill="#F8DCB3" cx="5988.36" cy="5793.83" r="81.1"/>
  <circle fill="#F8DCB3" cx="6124" cy="5514.87" r="81.1"/>
  <circle fill="#F8DCB3" cx="6404.09" cy="5679.15" r="81.1"/>
  <circle fill="#F8DCB3" cx="6796.21" cy="6257.47" r="81.1"/>
  <circle fill="#F8DCB3" cx="6528.53" cy="6100.8" r="81.1"/>
  <circle fill="#F8DCB3" cx="6664.17" cy="5821.84" r="81.1"/>
  <circle fill="#F8DCB3" cx="6944.25" cy="5986.12" r="81.1"/>
  <circle fill="#F8DCB3" cx="7041.23" cy="7067.34" r="81.1"/>
  <circle fill="#F8DCB3" cx="6773.54" cy="6910.67" r="81.1"/>
  <circle fill="#F8DCB3" cx="6909.18" cy="6631.72" r="81.1"/>
  <circle fill="#F8DCB3" cx="7189.27" cy="6795.99" r="81.1"/>
  <circle fill="#F8DCB3" cx="7581.4" cy="7374.31" r="81.1"/>
  <circle fill="#F8DCB3" cx="7313.71" cy="7217.64" r="81.1"/>
  <circle fill="#F8DCB3" cx="7449.35" cy="6938.69" r="81.1"/>
  <circle fill="#F8DCB3" cx="7729.44" cy="7102.96" r="81.1"/>
  <circle fill="#F8DCB3" cx="7332.68" cy="6533.3" r="81.1"/>
  <circle fill="#F8DCB3" cx="7064.99" cy="6376.63" r="81.1"/>
  <circle fill="#F8DCB3" cx="7200.63" cy="6097.67" r="81.1"/>
  <circle fill="#F8DCB3" cx="7480.72" cy="6261.95" r="81.1"/>
  <circle fill="#F8DCB3" cx="7872.84" cy="6840.27" r="81.1"/>
  <circle fill="#F8DCB3" cx="7605.15" cy="6683.6" r="81.1"/>
  <circle fill="#F8DCB3" cx="7740.79" cy="6404.64" r="81.1"/>
  <circle fill="#F8DCB3" cx="8020.88" cy="6568.92" r="81.1"/>
  <circle fill="#F8DCB3" cx="8142.04" cy="7650.67" r="81.1"/>
  <circle fill="#F8DCB3" cx="7874.35" cy="7494" r="81.1"/>
  <circle fill="#F8DCB3" cx="8009.99" cy="7215.05" r="81.1"/>
  <circle fill="#F8DCB3" cx="8290.08" cy="7379.32" r="81.1"/>
  <circle fill="#F8DCB3" cx="8682.2" cy="7957.64" r="81.1"/>
  <circle fill="#F8DCB3" cx="8414.52" cy="7800.97" r="81.1"/>
  <circle fill="#F8DCB3" cx="8550.16" cy="7522.02" r="81.1"/>
  <circle fill="#F8DCB3" cx="8830.24" cy="7686.29" r="81.1"/>
  <circle fill="#F8DCB3" cx="8433.48" cy="7116.63" r="81.1"/>
  <circle fill="#F8DCB3" cx="8165.79" cy="6959.96" r="81.1"/>
  <circle fill="#F8DCB3" cx="8301.43" cy="6681" r="81.1"/>
  <circle fill="#F8DCB3" cx="8581.52" cy="6845.28" r="81.1"/>
  <circle fill="#F8DCB3" cx="8973.65" cy="7423.6" r="81.1"/>
  <circle fill="#F8DCB3" cx="8705.96" cy="7266.93" r="81.1"/>
  <circle fill="#F8DCB3" cx="8841.6" cy="6987.97" r="81.1"/>
  <circle fill="#F8DCB3" cx="9121.69" cy="7152.25" r="81.1"/>
  <circle fill="#F8DCB3" cx="9222.81" cy="8226.19" r="81.1"/>
  <circle fill="#F8DCB3" cx="8955.13" cy="8069.53" r="81.1"/>
  <circle fill="#F8DCB3" cx="9090.77" cy="7790.57" r="81.1"/>
  <circle fill="#F8DCB3" cx="9370.85" cy="7954.85" r="81.1"/>
  <circle fill="#F8DCB3" cx="9762.98" cy="8533.16" r="81.1"/>
  <circle fill="#F8DCB3" cx="9495.29" cy="8376.5" r="81.1"/>
  <circle fill="#F8DCB3" cx="9630.93" cy="8097.54" r="81.1"/>
  <circle fill="#F8DCB3" cx="9911.02" cy="8261.82" r="81.1"/>
  <circle fill="#F8DCB3" cx="9514.26" cy="7692.15" r="81.1"/>
  <circle fill="#F8DCB3" cx="9246.57" cy="7535.48" r="81.1"/>
  <circle fill="#F8DCB3" cx="9382.21" cy="7256.53" r="81.1"/>
  <circle fill="#F8DCB3" cx="9662.3" cy="7420.8" r="81.1"/>
  <circle fill="#F8DCB3" cx="10054.42" cy="7999.12" r="81.1"/>
  <circle fill="#F8DCB3" cx="9786.73" cy="7842.45" r="81.1"/>
  <circle fill="#F8DCB3" cx="9922.38" cy="7563.5" r="81.1"/>
  <circle fill="#F8DCB3" cx="10202.46" cy="7727.77" r="81.1"/>
  <circle fill="#F8DCB3" cx="10323.62" cy="8809.53" r="81.1"/>
  <circle fill="#F8DCB3" cx="10055.93" cy="8652.86" r="81.1"/>
  <circle fill="#F8DCB3" cx="10191.57" cy="8373.9" r="81.1"/>
  <circle fill="#F8DCB3" cx="10471.66" cy="8538.18" r="81.1"/>
  <circle fill="#F8DCB3" cx="10863.78" cy="9116.5" r="81.1"/>
  <circle fill="#F8DCB3" cx="10596.1" cy="8959.83" r="81.1"/>
  <circle fill="#F8DCB3" cx="10731.74" cy="8680.87" r="81.1"/>
  <circle fill="#F8DCB3" cx="11011.82" cy="8845.15" r="81.1"/>
  <circle fill="#F8DCB3" cx="10615.06" cy="8275.48" r="81.1"/>
  <circle fill="#F8DCB3" cx="10347.37" cy="8118.81" r="81.1"/>
  <circle fill="#F8DCB3" cx="10483.01" cy="7839.86" r="81.1"/>
  <circle fill="#F8DCB3" cx="10763.1" cy="8004.13" r="81.1"/>
  <circle fill="#F8DCB3" cx="11155.23" cy="8582.45" r="81.1"/>
  <circle fill="#F8DCB3" cx="10887.54" cy="8425.78" r="81.1"/>
  <circle fill="#F8DCB3" cx="11023.18" cy="8146.83" r="81.1"/>
  <circle fill="#F8DCB3" cx="11303.27" cy="8311.11" r="81.1"/>
  <circle fill="#F8DCB3" cx="11400.24" cy="9392.32" r="81.1"/>
  <circle fill="#F8DCB3" cx="11132.56" cy="9235.66" r="81.1"/>
  <circle fill="#F8DCB3" cx="11268.2" cy="8956.7" r="81.1"/>
  <circle fill="#F8DCB3" cx="11548.28" cy="9120.98" r="81.1"/>
  <circle fill="#F8DCB3" cx="11940.41" cy="9699.29" r="81.1"/>
  <circle fill="#F8DCB3" cx="11672.72" cy="9542.63" r="81.1"/>
  <circle fill="#F8DCB3" cx="11808.36" cy="9263.67" r="81.1"/>
  <circle fill="#F8DCB3" cx="12088.45" cy="9427.95" r="81.1"/>
  <circle fill="#F8DCB3" cx="11691.69" cy="8858.28" r="81.1"/>
  <circle fill="#F8DCB3" cx="11424" cy="8701.61" r="81.1"/>
  <circle fill="#F8DCB3" cx="11559.64" cy="8422.66" r="81.1"/>
  <circle fill="#F8DCB3" cx="11839.73" cy="8586.93" r="81.1"/>
  <circle fill="#F8DCB3" cx="12231.85" cy="9165.25" r="81.1"/>
  <circle fill="#F8DCB3" cx="11964.17" cy="9008.58" r="81.1"/>
  <circle fill="#F8DCB3" cx="12099.81" cy="8729.63" r="81.1"/>
  <circle fill="#F8DCB3" cx="12379.89" cy="8893.9" r="81.1"/>
  <circle fill="#F8DCB3" cx="12369" cy="9540.03" r="81.1"/>
  <circle fill="#F8DCB3" cx="12524.81" cy="9284.94" r="81.1"/>
  <circle fill="#F8DCB3" cx="12660.45" cy="9005.99" r="81.1"/>
  <circle fill="#F8DCB3" cx="12940.53" cy="9170.26" r="81.1"/>
  <circle fill="#F8DCB3" cx="6804.93" cy="5556.42" r="81.1"/>
  <circle fill="#F8DCB3" cx="6537.24" cy="5399.75" r="81.1"/>
  <circle fill="#F8DCB3" cx="7345.1" cy="5863.39" r="81.1"/>
  <circle fill="#F8DCB3" cx="7077.41" cy="5706.72" r="81.1"/>
  <circle fill="#F8DCB3" cx="7881.56" cy="6139.22" r="81.1"/>
  <circle fill="#F8DCB3" cx="7613.87" cy="5982.55" r="81.1"/>
  <circle fill="#F8DCB3" cx="8029.6" cy="5867.87" r="81.1"/>
  <circle fill="#F8DCB3" cx="8421.72" cy="6446.19" r="81.1"/>
  <circle fill="#F8DCB3" cx="8154.04" cy="6289.52" r="81.1"/>
  <circle fill="#F8DCB3" cx="8289.68" cy="6010.56" r="81.1"/>
  <circle fill="#F8DCB3" cx="8982.36" cy="6722.55" r="81.1"/>
  <circle fill="#F8DCB3" cx="8714.68" cy="6565.88" r="81.1"/>
  <circle fill="#F8DCB3" cx="9522.53" cy="7029.52" r="81.1"/>
  <circle fill="#F8DCB3" cx="9670.57" cy="6758.17" r="81.1"/>
  <circle fill="#F8DCB3" cx="10063.14" cy="7298.07" r="81.1"/>
  <circle fill="#F8DCB3" cx="9795.45" cy="7141.4" r="81.1"/>
  <circle fill="#F8DCB3" cx="9931.09" cy="6862.45" r="81.1"/>
  <circle fill="#F8DCB3" cx="10211.18" cy="7026.73" r="81.1"/>
  <circle fill="#F8DCB3" cx="10603.31" cy="7605.04" r="81.1"/>
  <circle fill="#F8DCB3" cx="10335.62" cy="7448.37" r="81.1"/>
  <circle fill="#F8DCB3" cx="10471.26" cy="7169.42" r="81.1"/>
  <circle fill="#F8DCB3" cx="10751.35" cy="7333.7" r="81.1"/>
  <circle fill="#F8DCB3" cx="10354.58" cy="6764.03" r="81.1"/>
  <circle fill="#F8DCB3" cx="10086.9" cy="6607.36" r="81.1"/>
  <circle fill="#F8DCB3" cx="10222.54" cy="6328.4" r="81.1"/>
  <circle fill="#F8DCB3" cx="10502.62" cy="6492.68" r="81.1"/>
  <circle fill="#F8DCB3" cx="10894.75" cy="7071" r="81.1"/>
  <circle fill="#F8DCB3" cx="10627.06" cy="6914.33" r="81.1"/>
  <circle fill="#F8DCB3" cx="10762.7" cy="6635.38" r="81.1"/>
  <circle fill="#F8DCB3" cx="11042.79" cy="6799.65" r="81.1"/>
  <circle fill="#F8DCB3" cx="11163.94" cy="7881.4" r="81.1"/>
  <circle fill="#F8DCB3" cx="10896.26" cy="7724.74" r="81.1"/>
  <circle fill="#F8DCB3" cx="11031.9" cy="7445.78" r="81.1"/>
  <circle fill="#F8DCB3" cx="11311.98" cy="7610.06" r="81.1"/>
  <circle fill="#F8DCB3" cx="11704.11" cy="8188.37" r="81.1"/>
  <circle fill="#F8DCB3" cx="11436.42" cy="8031.71" r="81.1"/>
  <circle fill="#F8DCB3" cx="11572.06" cy="7752.75" r="81.1"/>
  <circle fill="#F8DCB3" cx="11852.15" cy="7917.03" r="81.1"/>
  <circle fill="#F8DCB3" cx="11455.39" cy="7347.36" r="81.1"/>
  <circle fill="#F8DCB3" cx="11187.7" cy="7190.69" r="81.1"/>
  <circle fill="#F8DCB3" cx="11323.34" cy="6911.74" r="81.1"/>
  <circle fill="#F8DCB3" cx="11603.43" cy="7076.01" r="81.1"/>
  <circle fill="#F8DCB3" cx="11995.55" cy="7654.33" r="81.1"/>
  <circle fill="#F8DCB3" cx="11727.87" cy="7497.66" r="81.1"/>
  <circle fill="#F8DCB3" cx="11863.51" cy="7218.71" r="81.1"/>
  <circle fill="#F8DCB3" cx="12143.59" cy="7382.98" r="81.1"/>
  <circle fill="#F8DCB3" cx="12240.57" cy="8464.2" r="81.1"/>
  <circle fill="#F8DCB3" cx="11972.88" cy="8307.53" r="81.1"/>
  <circle fill="#F8DCB3" cx="12108.52" cy="8028.58" r="81.1"/>
  <circle fill="#F8DCB3" cx="12388.61" cy="8192.86" r="81.1"/>
  <circle fill="#F8DCB3" cx="12780.74" cy="8771.17" r="81.1"/>
  <circle fill="#F8DCB3" cx="12513.05" cy="8614.5" r="81.1"/>
  <circle fill="#F8DCB3" cx="12648.69" cy="8335.55" r="81.1"/>
  <circle fill="#F8DCB3" cx="12928.78" cy="8499.83" r="81.1"/>
  <circle fill="#F8DCB3" cx="12532.02" cy="7930.16" r="81.1"/>
  <circle fill="#F8DCB3" cx="12264.33" cy="7773.49" r="81.1"/>
  <circle fill="#F8DCB3" cx="12399.97" cy="7494.53" r="81.1"/>
  <circle fill="#F8DCB3" cx="12680.06" cy="7658.81" r="81.1"/>
  <circle fill="#F8DCB3" cx="13072.18" cy="8237.13" r="81.1"/>
  <circle fill="#F8DCB3" cx="12804.49" cy="8080.46" r="81.1"/>
  <circle fill="#F8DCB3" cx="12940.13" cy="7801.51" r="81.1"/>
  <circle fill="#F8DCB3" cx="13220.22" cy="7965.78" r="81.1"/>
  <circle fill="#F8DCB3" cx="13073.69" cy="8890.87" r="81.1"/>
  <circle fill="#F8DCB3" cx="13209.33" cy="8611.91" r="81.1"/>
  <circle fill="#F8DCB3" cx="13365.13" cy="8356.82" r="81.1"/>
  <circle fill="#F8DCB3" cx="13500.77" cy="8077.87" r="81.1"/>
  <circle fill="#F8DCB3" cx="10386.57" cy="6049.18" r="81.1"/>
  <circle fill="#F8DCB3" cx="10926.73" cy="6356.15" r="81.1"/>
  <circle fill="#F8DCB3" cx="10659.05" cy="6199.49" r="81.1"/>
  <circle fill="#F8DCB3" cx="10794.69" cy="5920.53" r="81.1"/>
  <circle fill="#F8DCB3" cx="11074.77" cy="6084.81" r="81.1"/>
  <circle fill="#F8DCB3" cx="11218.18" cy="5822.11" r="81.1"/>
  <circle fill="#F8DCB3" cx="11366.22" cy="5550.76" r="81.1"/>
  <circle fill="#F8DCB3" cx="11467.34" cy="6624.71" r="81.1"/>
  <circle fill="#F8DCB3" cx="11199.66" cy="6468.04" r="81.1"/>
  <circle fill="#F8DCB3" cx="11335.3" cy="6189.08" r="81.1"/>
  <circle fill="#F8DCB3" cx="11615.38" cy="6353.36" r="81.1"/>
  <circle fill="#F8DCB3" cx="12007.51" cy="6931.68" r="81.1"/>
  <circle fill="#F8DCB3" cx="11739.82" cy="6775.01" r="81.1"/>
  <circle fill="#F8DCB3" cx="11875.46" cy="6496.05" r="81.1"/>
  <circle fill="#F8DCB3" cx="12155.55" cy="6660.33" r="81.1"/>
  <circle fill="#F8DCB3" cx="11758.79" cy="6090.66" r="81.1"/>
  <circle fill="#F8DCB3" cx="11491.1" cy="5933.99" r="81.1"/>
  <circle fill="#F8DCB3" cx="11626.74" cy="5655.04" r="81.1"/>
  <circle fill="#F8DCB3" cx="11906.83" cy="5819.32" r="81.1"/>
  <circle fill="#F8DCB3" cx="12298.95" cy="6397.63" r="81.1"/>
  <circle fill="#F8DCB3" cx="12031.27" cy="6240.96" r="81.1"/>
  <circle fill="#F8DCB3" cx="12166.91" cy="5962.01" r="81.1"/>
  <circle fill="#F8DCB3" cx="12446.99" cy="6126.29" r="81.1"/>
  <circle fill="#F8DCB3" cx="12568.15" cy="7208.04" r="81.1"/>
  <circle fill="#F8DCB3" cx="12300.46" cy="7051.37" r="81.1"/>
  <circle fill="#F8DCB3" cx="12436.1" cy="6772.41" r="81.1"/>
  <circle fill="#F8DCB3" cx="12716.19" cy="6936.69" r="81.1"/>
  <circle fill="#F8DCB3" cx="13108.32" cy="7515.01" r="81.1"/>
  <circle fill="#F8DCB3" cx="12840.63" cy="7358.34" r="81.1"/>
  <circle fill="#F8DCB3" cx="12976.27" cy="7079.38" r="81.1"/>
  <circle fill="#F8DCB3" cx="13256.36" cy="7243.66" r="81.1"/>
  <circle fill="#F8DCB3" cx="12859.59" cy="6673.99" r="81.1"/>
  <circle fill="#F8DCB3" cx="12591.91" cy="6517.33" r="81.1"/>
  <circle fill="#F8DCB3" cx="12727.55" cy="6238.37" r="81.1"/>
  <circle fill="#F8DCB3" cx="13007.63" cy="6402.65" r="81.1"/>
  <circle fill="#F8DCB3" cx="13399.76" cy="6980.96" r="81.1"/>
  <circle fill="#F8DCB3" cx="13132.07" cy="6824.3" r="81.1"/>
  <circle fill="#F8DCB3" cx="13267.71" cy="6545.34" r="81.1"/>
  <circle fill="#F8DCB3" cx="13547.8" cy="6709.62" r="81.1"/>
  <circle fill="#F8DCB3" cx="13644.78" cy="7790.84" r="81.1"/>
  <circle fill="#F8DCB3" cx="13377.09" cy="7634.17" r="81.1"/>
  <circle fill="#F8DCB3" cx="13512.73" cy="7355.21" r="81.1"/>
  <circle fill="#F8DCB3" cx="13792.82" cy="7519.49" r="81.1"/>
  <circle fill="#F8DCB3" cx="13917.26" cy="7941.14" r="81.1"/>
  <circle fill="#F8DCB3" cx="14052.9" cy="7662.18" r="81.1"/>
  <circle fill="#F8DCB3" cx="13936.22" cy="7256.79" r="81.1"/>
  <circle fill="#F8DCB3" cx="13668.53" cy="7100.12" r="81.1"/>
  <circle fill="#F8DCB3" cx="13804.17" cy="6821.17" r="81.1"/>
  <circle fill="#F8DCB3" cx="14084.26" cy="6985.45" r="81.1"/>
  <circle fill="#F8DCB3" cx="12044.82" cy="5548.79" r="81.1"/>
  <circle fill="#F8DCB3" cx="12584.99" cy="5855.76" r="81.1"/>
  <circle fill="#F8DCB3" cx="12317.3" cy="5699.09" r="81.1"/>
  <circle fill="#F8DCB3" cx="12452.94" cy="5420.14" r="81.1"/>
  <circle fill="#F8DCB3" cx="12733.03" cy="5584.41" r="81.1"/>
  <circle fill="#F8DCB3" cx="12876.43" cy="5321.72" r="81.1"/>
  <circle fill="#F8DCB3" cx="13145.62" cy="6132.12" r="81.1"/>
  <circle fill="#F8DCB3" cx="12877.94" cy="5975.45" r="81.1"/>
  <circle fill="#F8DCB3" cx="13013.58" cy="5696.5" r="81.1"/>
  <circle fill="#F8DCB3" cx="13293.66" cy="5860.77" r="81.1"/>
  <circle fill="#F8DCB3" cx="13685.79" cy="6439.09" r="81.1"/>
  <circle fill="#F8DCB3" cx="13418.1" cy="6282.42" r="81.1"/>
  <circle fill="#F8DCB3" cx="13553.74" cy="6003.47" r="81.1"/>
  <circle fill="#F8DCB3" cx="13833.83" cy="6167.74" r="81.1"/>
  <circle fill="#F8DCB3" cx="13437.07" cy="5598.08" r="81.1"/>
  <circle fill="#F8DCB3" cx="13169.38" cy="5441.41" r="81.1"/>
  <circle fill="#F8DCB3" cx="13585.11" cy="5326.73" r="81.1"/>
  <circle fill="#F8DCB3" cx="13977.23" cy="5905.05" r="81.1"/>
  <circle fill="#F8DCB3" cx="13709.55" cy="5748.38" r="81.1"/>
  <circle fill="#F8DCB3" cx="13845.19" cy="5469.42" r="81.1"/>
  <circle fill="#F8DCB3" cx="14125.27" cy="5633.7" r="81.1"/>
  <circle fill="#F8DCB3" cx="14226.4" cy="6707.64" r="81.1"/>
  <circle fill="#F8DCB3" cx="13958.71" cy="6550.97" r="81.1"/>
  <circle fill="#F8DCB3" cx="14094.35" cy="6272.02" r="81.1"/>
  <circle fill="#F8DCB3" cx="14374.44" cy="6436.3" r="81.1"/>
  <circle fill="#F8DCB3" cx="14517.84" cy="6173.6" r="81.1"/>
  <circle fill="#F8DCB3" cx="14250.16" cy="6016.93" r="81.1"/>
  <circle fill="#F8DCB3" cx="14385.8" cy="5737.98" r="81.1"/>
  <circle fill="#F8DCB3" cx="14665.88" cy="5902.25" r="81.1"/>
  <circle fill="#F8DCB3" cx="3586.81" cy="7016.43" r="81.1"/>
  <circle fill="#F8DCB3" cx="4116.08" cy="7969.53" r="81.1"/>
  <circle fill="#F8DCB3" cx="4396.17" cy="8133.81" r="81.1"/>
  <circle fill="#F8DCB3" cx="3999.41" cy="7564.14" r="81.1"/>
  <circle fill="#F8DCB3" cx="3867.36" cy="7128.52" r="81.1"/>
  <circle fill="#F8DCB3" cx="4147.45" cy="7292.79" r="81.1"/>
  <circle fill="#F8DCB3" cx="4539.57" cy="7871.11" r="81.1"/>
  <circle fill="#F8DCB3" cx="4271.88" cy="7714.44" r="81.1"/>
  <circle fill="#F8DCB3" cx="4407.52" cy="7435.49" r="81.1"/>
  <circle fill="#F8DCB3" cx="4687.61" cy="7599.76" r="81.1"/>
  <circle fill="#F8DCB3" cx="4784.59" cy="8680.98" r="81.1"/>
  <circle fill="#F8DCB3" cx="4516.9" cy="8524.31" r="81.1"/>
  <circle fill="#F8DCB3" cx="4652.54" cy="8245.36" r="81.1"/>
  <circle fill="#F8DCB3" cx="4932.63" cy="8409.64" r="81.1"/>
  <circle fill="#F8DCB3" cx="5324.75" cy="8987.95" r="81.1"/>
  <circle fill="#F8DCB3" cx="5057.07" cy="8831.29" r="81.1"/>
  <circle fill="#F8DCB3" cx="5192.71" cy="8552.33" r="81.1"/>
  <circle fill="#F8DCB3" cx="5472.79" cy="8716.61" r="81.1"/>
  <circle fill="#F8DCB3" cx="5076.03" cy="8146.94" r="81.1"/>
  <circle fill="#F8DCB3" cx="4808.35" cy="7990.27" r="81.1"/>
  <circle fill="#F8DCB3" cx="4943.99" cy="7711.32" r="81.1"/>
  <circle fill="#F8DCB3" cx="5224.07" cy="7875.59" r="81.1"/>
  <circle fill="#F8DCB3" cx="5616.2" cy="8453.91" r="81.1"/>
  <circle fill="#F8DCB3" cx="5348.51" cy="8297.24" r="81.1"/>
  <circle fill="#F8DCB3" cx="5484.15" cy="8018.29" r="81.1"/>
  <circle fill="#F8DCB3" cx="5764.24" cy="8182.56" r="81.1"/>
  <circle fill="#F8DCB3" cx="5885.39" cy="9264.31" r="81.1"/>
  <circle fill="#F8DCB3" cx="5617.71" cy="9107.65" r="81.1"/>
  <circle fill="#F8DCB3" cx="5753.35" cy="8828.69" r="81.1"/>
  <circle fill="#F8DCB3" cx="6033.43" cy="8992.97" r="81.1"/>
  <circle fill="#F8DCB3" cx="6425.56" cy="9571.28" r="81.1"/>
  <circle fill="#F8DCB3" cx="6157.87" cy="9414.62" r="81.1"/>
  <circle fill="#F8DCB3" cx="6293.51" cy="9135.66" r="81.1"/>
  <circle fill="#F8DCB3" cx="6573.6" cy="9299.94" r="81.1"/>
  <circle fill="#F8DCB3" cx="6176.84" cy="8730.27" r="81.1"/>
  <circle fill="#F8DCB3" cx="5909.15" cy="8573.6" r="81.1"/>
  <circle fill="#F8DCB3" cx="6044.79" cy="8294.65" r="81.1"/>
  <circle fill="#F8DCB3" cx="6324.88" cy="8458.92" r="81.1"/>
  <circle fill="#F8DCB3" cx="6717" cy="9037.24" r="81.1"/>
  <circle fill="#F8DCB3" cx="6449.32" cy="8880.57" r="81.1"/>
  <circle fill="#F8DCB3" cx="6584.96" cy="8601.62" r="81.1"/>
  <circle fill="#F8DCB3" cx="6865.04" cy="8765.89" r="81.1"/>
  <circle fill="#F8DCB3" cx="6966.17" cy="9839.84" r="81.1"/>
  <circle fill="#F8DCB3" cx="6698.48" cy="9683.17" r="81.1"/>
  <circle fill="#F8DCB3" cx="6834.12" cy="9404.21" r="81.1"/>
  <circle fill="#F8DCB3" cx="7114.21" cy="9568.49" r="81.1"/>
  <circle fill="#F8DCB3" cx="7506.34" cy="10146.81" r="81.1"/>
  <circle fill="#F8DCB3" cx="7238.65" cy="9990.14" r="81.1"/>
  <circle fill="#F8DCB3" cx="7374.29" cy="9711.18" r="81.1"/>
  <circle fill="#F8DCB3" cx="7654.38" cy="9875.46" r="81.1"/>
  <circle fill="#F8DCB3" cx="7257.61" cy="9305.79" r="81.1"/>
  <circle fill="#F8DCB3" cx="6989.93" cy="9149.13" r="81.1"/>
  <circle fill="#F8DCB3" cx="7125.57" cy="8870.17" r="81.1"/>
  <circle fill="#F8DCB3" cx="7405.65" cy="9034.45" r="81.1"/>
  <circle fill="#F8DCB3" cx="7797.78" cy="9612.76" r="81.1"/>
  <circle fill="#F8DCB3" cx="7530.09" cy="9456.1" r="81.1"/>
  <circle fill="#F8DCB3" cx="7665.73" cy="9177.14" r="81.1"/>
  <circle fill="#F8DCB3" cx="7945.82" cy="9341.42" r="81.1"/>
  <circle fill="#F8DCB3" cx="7934.93" cy="9987.54" r="81.1"/>
  <circle fill="#F8DCB3" cx="8358.42" cy="9889.12" r="81.1"/>
  <circle fill="#F8DCB3" cx="8090.73" cy="9732.46" r="81.1"/>
  <circle fill="#F8DCB3" cx="8226.37" cy="9453.5" r="81.1"/>
  <circle fill="#F8DCB3" cx="8506.46" cy="9617.78" r="81.1"/>
  <circle fill="#F8DCB3" cx="8766.54" cy="9760.47" r="81.1"/>
  <circle fill="#F8DCB3" cx="9046.62" cy="9924.75" r="81.1"/>
  <circle fill="#F8DCB3" cx="9303" cy="10036.3" r="81.1"/>
  <circle fill="#F8DCB3" cx="3593.53" cy="6312.39" r="81.1"/>
  <circle fill="#F8DCB3" cx="3749.33" cy="6057.3" r="81.1"/>
  <circle fill="#F8DCB3" cx="5185.23" cy="9225.54" r="81.1"/>
  <circle fill="#F8DCB3" cx="5725.4" cy="9532.51" r="81.1"/>
  <circle fill="#F8DCB3" cx="5457.71" cy="9375.84" r="81.1"/>
  <circle fill="#F8DCB3" cx="6255.87" cy="9833.8" r="81.1"/>
  <circle fill="#F8DCB3" cx="5988.18" cy="9677.14" r="81.1"/>
  <circle fill="#F8DCB3" cx="6547.18" cy="9972.79" r="81.1"/>
 </g>
</svg>
